<?xml version="1.0" encoding="utf-8"?>
<!-- Generator: Adobe Illustrator 16.0.0, SVG Export Plug-In . SVG Version: 6.00 Build 0)  -->
<!DOCTYPE svg PUBLIC "-//W3C//DTD SVG 1.1//EN" "http://www.w3.org/Graphics/SVG/1.1/DTD/svg11.dtd">
<svg version="1.1" id="Layer_1" xmlns="http://www.w3.org/2000/svg" xmlns:xlink="http://www.w3.org/1999/xlink" x="0px" y="0px"
	 width="153.806px" height="20px" viewBox="0 0.5 153.806 20" style="enable-background:new 0 0.5 153.806 20;"
	 xml:space="preserve">
<linearGradient id="Right_Background_1_" gradientUnits="userSpaceOnUse" x1="152.9041" y1="-64.9448" x2="152.9041" y2="-46.0562" gradientTransform="matrix(1 0 0 -1 -76 -45)">
	<stop  offset="0" style="stop-color:#DE9527"/>
	<stop  offset="1" style="stop-color:#F6A61C"/>
</linearGradient>
<path id="Right_Background" style="fill:url(#Right_Background_1_);" d="M2.223,19.945c-0.92,0-1.667-0.75-1.667-1.668V2.723
	c0-0.92,0.747-1.667,1.667-1.667h149.359c0.919,0,1.668,0.747,1.668,1.667v15.554c0,0.92-0.749,1.668-1.668,1.668H2.223
	L2.223,19.945z"/>
<linearGradient id="Left_Background_1_" gradientUnits="userSpaceOnUse" x1="192.4441" y1="611.5" x2="192.4441" y2="591.5" gradientTransform="matrix(1 0 0 1 -152 -591)">
	<stop  offset="0" style="stop-color:#8D6226"/>
	<stop  offset="1" style="stop-color:#A9732B"/>
</linearGradient>
<path id="Left_Background" style="fill:url(#Left_Background_1_);" d="M80.889,20.5H2c-1.1,0-2-0.9-2-2v-16c0-1.1,0.9-2,2-2H80.89
	L80.889,20.5L80.889,20.5z"/>
<path id="Right_Outline" style="fill:#BA802B;" d="M151.583,1.611c0.612,0,1.109,0.499,1.109,1.111v15.555
	c0,0.613-0.497,1.111-1.109,1.111H2.223c-0.612,0-1.111-0.498-1.111-1.111V2.723c0-0.612,0.499-1.111,1.111-1.111L151.583,1.611
	 M151.583,0.5H2.223C1,0.5,0,1.5,0,2.723v15.554C0,19.5,1,20.5,2.223,20.5h149.359c1.223,0,2.223-1,2.223-2.223V2.723
	C153.804,1.5,152.804,0.5,151.583,0.5L151.583,0.5z"/>
<path id="Left_Outline" style="fill:#8D6226;" d="M2.223,0.5C1,0.5,0,1.5,0,2.723v15.554C0,19.5,1,20.5,2.223,20.5h78.665v-20H2.223
	z M79.777,19.389H2.223c-0.612,0-1.111-0.498-1.111-1.111V2.723c0-0.612,0.499-1.111,1.111-1.111l77.554,0V19.389z"/>
<g id="Built">
	<g style="opacity:0.5;enable-background:new    ;">
		<path d="M6.967,7.488h2.666c1.215,0,2.097,0.173,2.646,0.519s0.823,0.896,0.823,1.649c0,0.512-0.12,0.932-0.36,1.26
			s-0.56,0.525-0.958,0.592v0.059c0.543,0.121,0.935,0.348,1.175,0.68s0.36,0.773,0.36,1.324c0,0.781-0.282,1.391-0.847,1.828
			s-1.331,0.656-2.3,0.656H6.967V7.488z M8.783,10.881h1.055c0.492,0,0.849-0.076,1.069-0.229s0.331-0.404,0.331-0.756
			c0-0.328-0.12-0.563-0.36-0.706s-0.62-0.214-1.14-0.214H8.783V10.881z M8.783,12.322v2.232h1.184c0.5,0,0.869-0.096,1.107-0.287
			s0.357-0.484,0.357-0.879c0-0.711-0.508-1.066-1.523-1.066H8.783z"/>
		<path d="M22.002,7.488v5.543c0,0.633-0.142,1.188-0.425,1.664s-0.692,0.842-1.228,1.096s-1.168,0.381-1.898,0.381
			c-1.102,0-1.957-0.282-2.566-0.847s-0.914-1.337-0.914-2.317v-5.52h1.811v5.244c0,0.66,0.133,1.145,0.398,1.453
			s0.705,0.463,1.318,0.463c0.594,0,1.024-0.155,1.292-0.466s0.401-0.798,0.401-1.462V7.488H22.002z"/>
		<path d="M24.1,16.055V7.488h1.816v8.566H24.1z"/>
		<path d="M28.073,16.055V7.488h1.816v7.066h3.475v1.5H28.073z"/>
		<path d="M38.156,16.055H36.34V9h-2.326V7.488h6.469V9h-2.326V16.055z"/>
		<path d="M53.262,16.055h-2.068l-1.16-4.5c-0.043-0.16-0.116-0.491-0.22-0.993s-0.163-0.839-0.179-1.011
			c-0.023,0.211-0.082,0.55-0.176,1.017s-0.166,0.8-0.217,0.999l-1.154,4.488h-2.062L43.84,7.488h1.787l1.096,4.676
			c0.191,0.863,0.33,1.611,0.416,2.244c0.023-0.223,0.077-0.567,0.161-1.034s0.163-0.829,0.237-1.087l1.248-4.799h1.717l1.248,4.799
			c0.055,0.215,0.123,0.543,0.205,0.984s0.145,0.82,0.188,1.137c0.039-0.305,0.102-0.685,0.188-1.14s0.164-0.823,0.234-1.104
			l1.09-4.676h1.787L53.262,16.055z"/>
		<path d="M56.52,16.055V7.488h1.816v8.566H56.52z"/>
		<path d="M63.797,16.055h-1.816V9h-2.326V7.488h6.469V9h-2.326V16.055z"/>
		<path d="M74.461,16.055h-1.811v-3.697h-3.393v3.697h-1.816V7.488h1.816v3.357h3.393V7.488h1.811V16.055z"/>
	</g>
	<g style="enable-background:new    ;">
		<path style="fill:#FFFFFF;" d="M6.967,6.378h2.666c1.215,0,2.097,0.173,2.646,0.519s0.823,0.896,0.823,1.649
			c0,0.512-0.12,0.932-0.36,1.26s-0.56,0.525-0.958,0.592v0.059c0.543,0.121,0.935,0.348,1.175,0.68s0.36,0.773,0.36,1.324
			c0,0.781-0.282,1.391-0.847,1.828s-1.331,0.656-2.3,0.656H6.967V6.378z M8.783,9.771h1.055c0.492,0,0.849-0.076,1.069-0.229
			s0.331-0.404,0.331-0.756c0-0.328-0.12-0.563-0.36-0.706s-0.62-0.214-1.14-0.214H8.783V9.771z M8.783,11.212v2.232h1.184
			c0.5,0,0.869-0.096,1.107-0.287s0.357-0.484,0.357-0.879c0-0.711-0.508-1.066-1.523-1.066H8.783z"/>
		<path style="fill:#FFFFFF;" d="M22.002,6.378v5.543c0,0.633-0.142,1.188-0.425,1.664s-0.692,0.842-1.228,1.096
			s-1.168,0.381-1.898,0.381c-1.102,0-1.957-0.282-2.566-0.847s-0.914-1.337-0.914-2.317v-5.52h1.811v5.244
			c0,0.66,0.133,1.145,0.398,1.453s0.705,0.463,1.318,0.463c0.594,0,1.024-0.155,1.292-0.466s0.401-0.798,0.401-1.462V6.378H22.002z
			"/>
		<path style="fill:#FFFFFF;" d="M24.1,14.944V6.378h1.816v8.566H24.1z"/>
		<path style="fill:#FFFFFF;" d="M28.073,14.944V6.378h1.816v7.066h3.475v1.5H28.073z"/>
		<path style="fill:#FFFFFF;" d="M38.156,14.944H36.34V7.89h-2.326V6.378h6.469V7.89h-2.326V14.944z"/>
		<path style="fill:#FFFFFF;" d="M53.262,14.944h-2.068l-1.16-4.5c-0.043-0.16-0.116-0.491-0.22-0.993s-0.163-0.839-0.179-1.011
			c-0.023,0.211-0.082,0.55-0.176,1.017s-0.166,0.8-0.217,0.999l-1.154,4.488h-2.062L43.84,6.378h1.787l1.096,4.676
			c0.191,0.863,0.33,1.611,0.416,2.244c0.023-0.223,0.077-0.567,0.161-1.034s0.163-0.829,0.237-1.087l1.248-4.799h1.717l1.248,4.799
			c0.055,0.215,0.123,0.543,0.205,0.984s0.145,0.82,0.188,1.137c0.039-0.305,0.102-0.685,0.188-1.14s0.164-0.823,0.234-1.104
			l1.09-4.676h1.787L53.262,14.944z"/>
		<path style="fill:#FFFFFF;" d="M56.52,14.944V6.378h1.816v8.566H56.52z"/>
		<path style="fill:#FFFFFF;" d="M63.797,14.944h-1.816V7.89h-2.326V6.378h6.469V7.89h-2.326V14.944z"/>
		<path style="fill:#FFFFFF;" d="M74.461,14.944h-1.811v-3.697h-3.393v3.697h-1.816V6.378h1.816v3.357h3.393V6.378h1.811V14.944z"/>
	</g>
</g>
<g>
	<g style="opacity:0.5;enable-background:new    ;">
		<path style="fill:#F2F2F2;" d="M108.561,11.039h3.697v4.617c-1.004,0.344-2.107,0.516-3.311,0.516c-1.32,0-2.34-0.383-3.061-1.148
			s-1.082-1.857-1.082-3.275c0-1.383,0.395-2.459,1.184-3.229s1.895-1.154,3.316-1.154c0.539,0,1.049,0.051,1.527,0.152
			s0.895,0.23,1.25,0.387l-0.732,1.816c-0.617-0.305-1.295-0.457-2.033-0.457c-0.676,0-1.197,0.22-1.566,0.659
			s-0.555,1.067-0.555,1.884c0,0.801,0.168,1.411,0.502,1.831s0.814,0.63,1.443,0.63c0.344,0,0.66-0.033,0.949-0.1v-1.342h-1.529
			V11.039z"/>
		<path style="fill:#F2F2F2;" d="M116.319,12.938v3.117h-2.314V7.488h2.807c2.328,0,3.492,0.844,3.492,2.531
			c0,0.992-0.484,1.76-1.453,2.303l2.496,3.732h-2.625l-1.816-3.117H116.319z M116.319,11.197h0.434
			c0.809,0,1.213-0.357,1.213-1.072c0-0.59-0.396-0.885-1.189-0.885h-0.457V11.197z"/>
		<path style="fill:#F2F2F2;" d="M129.409,7.488v5.156c0,1.121-0.316,1.989-0.951,2.604s-1.551,0.923-2.746,0.923
			c-1.168,0-2.064-0.299-2.691-0.896s-0.941-1.457-0.941-2.578V7.488h2.326v5.027c0,0.605,0.113,1.045,0.34,1.318
			s0.561,0.41,1.002,0.41c0.473,0,0.816-0.136,1.029-0.407s0.318-0.716,0.318-1.333V7.488H129.409z"/>
		<path style="fill:#F2F2F2;" d="M139.364,16.055h-3.035L133.2,10.02h-0.053c0.074,0.949,0.111,1.674,0.111,2.174v3.861h-2.051
			V7.488h3.023l3.117,5.953h0.035c-0.055-0.863-0.082-1.557-0.082-2.08V7.488h2.062V16.055z"/>
		<path style="fill:#F2F2F2;" d="M144.995,16.055h-2.314V9.381h-2.092V7.488h6.492v1.893h-2.086V16.055z"/>
	</g>
	<g style="enable-background:new    ;">
		<path style="fill:#333333;" d="M108.561,9.929h3.697v4.617c-1.004,0.344-2.107,0.516-3.311,0.516c-1.32,0-2.34-0.383-3.061-1.148
			s-1.082-1.857-1.082-3.275c0-1.383,0.395-2.459,1.184-3.229s1.895-1.154,3.316-1.154c0.539,0,1.049,0.051,1.527,0.152
			s0.895,0.23,1.25,0.387L111.35,8.61c-0.617-0.305-1.295-0.457-2.033-0.457c-0.676,0-1.197,0.22-1.566,0.659
			s-0.555,1.067-0.555,1.884c0,0.801,0.168,1.411,0.502,1.831s0.814,0.63,1.443,0.63c0.344,0,0.66-0.033,0.949-0.1v-1.342h-1.529
			V9.929z"/>
		<path style="fill:#333333;" d="M116.319,11.827v3.117h-2.314V6.378h2.807c2.328,0,3.492,0.844,3.492,2.531
			c0,0.992-0.484,1.76-1.453,2.303l2.496,3.732h-2.625l-1.816-3.117H116.319z M116.319,10.087h0.434
			c0.809,0,1.213-0.357,1.213-1.072c0-0.59-0.396-0.885-1.189-0.885h-0.457V10.087z"/>
		<path style="fill:#333333;" d="M129.409,6.378v5.156c0,1.121-0.316,1.989-0.951,2.604s-1.551,0.923-2.746,0.923
			c-1.168,0-2.064-0.299-2.691-0.896s-0.941-1.457-0.941-2.578V6.378h2.326v5.027c0,0.605,0.113,1.045,0.34,1.318
			s0.561,0.41,1.002,0.41c0.473,0,0.816-0.136,1.029-0.407s0.318-0.716,0.318-1.333V6.378H129.409z"/>
		<path style="fill:#333333;" d="M139.364,14.944h-3.035L133.2,8.909h-0.053c0.074,0.949,0.111,1.674,0.111,2.174v3.861h-2.051
			V6.378h3.023l3.117,5.953h0.035c-0.055-0.863-0.082-1.557-0.082-2.08V6.378h2.062V14.944z"/>
		<path style="fill:#333333;" d="M144.995,14.944h-2.314V8.271h-2.092V6.378h6.492v1.893h-2.086V14.944z"/>
	</g>
</g>
<g>
	<path style="fill:#FBA919;" d="M87.704,6.567c0,0,0.273,1.057,0.313,1.409c0.039,0.353-0.704,1.136-0.704,1.526
		c0,0.392,0.156,1.096,1.019,1.449c0.86,0.352,0.977,1.252,0.977,1.801c0,0.548-0.312,1.604-0.312,1.604s-0.195,2.622,0.861,3.093
		c1.058,0.469,0.822,0.469,1.058,0.469c0.234,0,1.956,0.705,2.974,0.431c1.019-0.274,1.292-0.587,1.292-0.587
		s1.019,0.077,1.33-0.822c0.312-0.899,0.51-2.778,0.393-3.64c-0.118-0.862-0.274-1.997,0.431-2.388
		c0.704-0.392,1.447-0.861,1.33-1.252c-0.117-0.392-0.743-0.94-0.743-0.94s-0.158-0.978-0.04-1.213
		c0.117-0.235,0.821-0.822,0.432-1.253c-0.392-0.43-1.097-0.43-1.097-0.43l-0.9,0.078c0,0-1.525-1.37-3.522-1.292
		c-1.995,0.079-3.249,1.292-3.249,1.292s-0.665-0.235-1.252,0C87.704,6.137,87.588,5.902,87.704,6.567z"/>
	<path style="fill:#E78724;" d="M91.281,12.395c0,0-0.775,1.186-1.343,2.027c-0.089,0.13,0.567,0.138,0.567,0.138L91.281,12.395z"/>
	<path style="fill:#E78724;" d="M91.65,9.938c0,0-0.233,0.583-0.361,0.892c-0.139,0.335-0.669,0.503-0.669,0.503
		s0.274-0.288,0.274-1.018c0-0.306,0.396-0.428,0.396-0.428L91.65,9.938z"/>
	<path style="fill:#E78724;" d="M91.414,10.267c0,0-0.478,0.57-1.368,0.25c-0.889-0.319-0.979-1.458-0.979-1.777
		c0-0.319,1.688,0.319,1.916,0.456C91.209,9.333,91.642,9.879,91.414,10.267z"/>
	<path style="fill:#E78724;" d="M88.056,4.178c0,0,0.82-0.16,1.368,0.273c0.548,0.434,0.706,0.775,0.706,0.775L89.21,5.958
		c0,0-0.447-0.207-0.583-0.799C88.49,4.565,88.581,4.292,88.056,4.178z"/>
	<path style="fill:#E78724;" d="M91.175,8.621c-0.354-0.501-0.936-0.72-1.399-0.756c-0.793-0.062-1.17,0.218-1.17,0.218
		s1.299,0.055,1.673,0.546c0.696,0.915,1.713,0.989,1.875,0.788c-0.188,0.009-0.395-0.083-0.615-0.292
		C91.398,8.994,91.288,8.78,91.175,8.621z"/>
	<path style="fill:#E78724;" d="M88.983,10.395c0,0-1.44-0.496-1.166-0.997c0.272-0.501,0.055-0.775,0.055-0.775
		s-0.804,0.6-0.6,1.239c0.127,0.392,0.338,0.675,1.498,1.219c0.558,1.033,0.116,2.894,0.143,2.903
		c0.044,0.015,0.78-0.365,0.731-2.106C89.628,11.345,89.586,10.615,88.983,10.395z"/>
	<path style="fill:#E78724;" d="M90.871,5.07c-0.604,0.306-1.432,0.734-1.432,0.734l0.326,0.163
		c-0.031,0.051-0.047,0.081-0.047,0.081L90.053,6.2c0,0,0.815,0.59,1.315,0.97c-0.166-0.513-0.655-1.319-0.655-1.319
		S90.575,5.48,90.871,5.07z"/>
	<path style="fill:#E78724;" d="M92.878,17.577c-1.857,0-2.485-0.942-2.485-0.942l0.29,0.706c0.11,0.306,1.279,1.256,2.191,1.256"/>
	<path style="fill:#E78724;" d="M90.596,15.997c0,0,0.17,1.045,0.854,1.045c0.58,0,0.752-0.883,0.752-1.064L90.596,15.997z"/>
	<path style="fill:#E78724;" d="M89.459,14.424c0.06-0.168,0.271-0.844,0.341-1.46c0.081-0.736,0.052-1.814,0.052-1.814
		s-0.183,0.707-0.343,0.82c-0.158,0.114-0.455,0.89-0.455,0.89s-0.158,1.154-0.234,1.541C89.028,14.443,89.204,14.318,89.459,14.424
		z"/>
	<path style="fill:#E78724;" d="M87.806,9.851c0,0,0.387-0.138,0.501-0.981c0.113-0.843-0.137-1.572-0.137-1.572
		s0.022,1.163-0.114,1.39c-0.136,0.229-0.25,0.296-0.411,0.593C87.487,9.577,87.715,9.759,87.806,9.851z"/>
	<path style="fill:#87CCEE;" d="M89.862,5.977"/>
	<path style="fill:#FDC168;" d="M88.268,4.378l-0.079-0.051C87.957,4.335,88.268,4.378,88.268,4.378z"/>
	<path style="fill:#FBA919;" d="M91.185,4.82c0,0-0.364-0.06-0.546-0.333c-0.183-0.274-0.699-0.821-1.522-0.828
		c-0.824-0.006-1.639,0.219-1.639,0.219l0.711,0.449c0.075-0.002,0.207-0.001,0.425,0.006c0.893,0.03,1.03,0.913,1.03,0.913
		l3.146-0.434"/>
	<path style="fill:#FFFFFF;" d="M91.49,9.696c0,0-0.425,0.426-1.078,0.29c-0.654-0.137-1.049-0.426-1.08-0.927
		c-0.03-0.501,0.138-0.699,0.138-0.699s0.729,0.228,1.079,0.532S91.156,9.682,91.49,9.696z"/>
	<path style="fill:#C9C9C9;" d="M90.975,9.544c0,0-0.368,0.168-0.78,0.032c-0.542-0.181-0.577-0.742-0.577-0.742
		s-0.331,0.972,0.597,1.159c0.746,0.15,1.187-0.281,1.187-0.281L90.975,9.544z"/>
	<path style="fill:#463014;" d="M91.399,14.993"/>
	<path style="fill:#463014;" d="M91.238,4.614c-0.04-0.833,0.645-1.498,0.88-1.526c0.013,0.142-0.013,0.692,0.224,0.862
		c0.069-0.451,0.302-0.946,1.223-1.271c-0.197,0.522-0.026,0.961,0.055,1.164c0.628-0.57,1.053-0.477,1.053-0.477
		s-0.438,0.754-0.267,1.248C93.142,4.515,91.244,4.748,91.238,4.614z"/>
	<path style="fill:#463014;" d="M88.562,5.884c-0.301-0.25-0.076-0.481-0.1-0.766c-0.013-0.15-0.025-0.294-0.076-0.372
		c-0.275-0.437-0.93-0.57-0.936-0.571l-0.308-0.061l0.204-0.237c0.026-0.031,0.858-0.826,2.149-0.409
		c0.903,0.291,1.571,1.278,1.596,1.318L90.64,4.999c-0.006-0.009-0.534-0.937-1.309-1.186c-0.624-0.202-1.202-0.01-1.45,0.116
		c0.264,0.105,0.607,0.296,0.815,0.623c0.097,0.154,0.112,0.348,0.129,0.536c0.021,0.25,0.04,0.484,0.224,0.637L88.562,5.884z"/>
	<path style="fill:#463014;" d="M87.759,9.53c0,0,0.38-0.47,0.492-1.385c0.043-0.36-0.035-1.072-0.16-1.346
		c0.023,0.673-0.146,1.346-0.146,1.346S87.827,9.394,87.759,9.53z"/>
	<path style="fill:#463014;" d="M89.759,5.409c-0.001-0.001-0.121-0.532-0.459-0.801c-0.475-0.377-1.055-0.177-1.061-0.174
		l-0.084-0.261c0.027-0.009,0.691-0.218,1.304,0.212c0.613,0.432,0.687,0.824,0.693,0.867L89.759,5.409z"/>
	<path style="fill:#463014;" d="M88.949,9.193c0,0-0.199-0.285-0.163-0.599c0.019-0.155,0.091-0.313,0.219-0.37
		c0.237-0.104,0.343,0.165,0.343,0.165S89.013,8.472,88.949,9.193z"/>
	<path style="fill:#463014;" d="M91.399,14.993"/>
	<path style="fill:#463014;" d="M91.135,9.626c0.009,0.016,0.013,0.025,0.013,0.025s-0.621,0.465-1.258-0.007
		c-0.34-0.252-0.309-0.88-0.205-1.145c0.272,0.062,0.503,0.173,0.694,0.302c-0.242-0.217-0.455-0.377-0.455-0.381l-0.275-0.078
		l-0.538-0.184c-0.006,0.041-0.201,0.958,0.363,1.583c0.251,0.278,1.425,0.899,1.982-0.163L91.135,9.626z"/>
	<path style="fill:#463014;" d="M91.077,9.695c0.35,0.532,1.23,0.228,1.215-0.334c0,0-0.588,0.326-1.109-0.273
		c-0.304-0.349-1.277-1.312-2.599-0.993C89.496,8.294,90.705,9.127,91.077,9.695z"/>
	<g>
		<path style="fill:#463014;" d="M91.399,14.993"/>
	</g>
	<path style="fill:#463014;" d="M88.462,11.196c0.083,0.048,0.38,0.355,0.381,0.813c0,0.231-0.023,1.388-0.138,2.094
		c0.172,0.112,0.291,0.136,0.462,0.249c0.085-0.818,0.146-2.004,0.119-2.483c-0.034-0.546-0.326-0.912-0.597-1.068
		c-0.085-0.049-0.174-0.097-0.263-0.145c-0.465-0.251-0.945-0.51-0.945-0.954c0-0.347,0.135-0.455,0.278-0.57l0.016-0.012
		c0.094-0.077,0.2-0.164,0.265-0.306c0.174-0.389,0.201-1.382,0-1.633c-0.101-0.125-0.369-0.547-0.292-0.831
		c0.029-0.108,0.097-0.188,0.209-0.245c0.117-0.061,0.275-0.091,0.472-0.091c0.383,0,0.808,0.116,1.028,0.187
		c0.782,0.248,1.729,0.965,2,1.178c0.009,0.006,0.013,0.01,0.014,0.01l0.174,0.122l-0.108-0.183
		c-0.007-0.012-0.694-1.141-1.923-1.556c-0.239-0.081-0.708-0.216-1.171-0.216c-0.275,0-0.508,0.048-0.692,0.143
		c-0.226,0.116-0.378,0.299-0.442,0.532c-0.154,0.569,0.351,1.203,0.368,1.224c0.06,0.105,0.084,0.869-0.053,1.175
		c-0.018,0.042-0.069,0.084-0.135,0.136c-0.021,0.017-0.044,0.034-0.067,0.053c-0.191,0.145-0.482,0.364-0.482,0.869
		c0,0.691,0.701,1.065,1.264,1.367C88.294,11.103,88.382,11.15,88.462,11.196z"/>
	<g>
		<g>
			<path style="fill:#463014;" d="M88.562,5.884c-0.301-0.25-0.076-0.481-0.1-0.766c-0.013-0.15-0.025-0.294-0.076-0.372
				c-0.275-0.437-0.93-0.57-0.936-0.571l-0.308-0.061l0.204-0.237c0.026-0.031,0.858-0.826,2.149-0.409
				c0.903,0.291,1.571,1.278,1.596,1.318L90.64,4.999c-0.006-0.009-0.534-0.937-1.309-1.186c-0.624-0.202-1.202-0.01-1.45,0.116
				c0.264,0.105,0.607,0.296,0.815,0.623c0.097,0.154,0.112,0.348,0.129,0.536c0.021,0.25,0.04,0.484,0.224,0.637L88.562,5.884z"/>
		</g>
		<g>
			<path style="fill:#463014;" d="M88.552,5.935l-0.019-0.016c-0.224-0.186-0.184-0.369-0.146-0.545
				c0.018-0.082,0.035-0.166,0.029-0.252c-0.013-0.146-0.024-0.282-0.068-0.351c-0.263-0.417-0.901-0.55-0.907-0.551l-0.384-0.076
				l0.255-0.296c0.004-0.005,0.54-0.547,1.446-0.547c0.247,0,0.501,0.042,0.752,0.123c0.942,0.304,1.615,1.328,1.622,1.338
				l0.027,0.043l-0.536,0.252l-0.022-0.034c-0.058-0.099-0.564-0.936-1.283-1.167c-0.176-0.057-0.361-0.085-0.552-0.085
				c-0.345,0-0.622,0.094-0.771,0.157c0.248,0.112,0.549,0.3,0.739,0.599c0.104,0.164,0.12,0.364,0.138,0.557
				c0.02,0.241,0.039,0.466,0.207,0.606l0.063,0.052L88.552,5.935z"/>
		</g>
	</g>
	<g>
		<g>
			<path style="fill:#463014;" d="M89.759,5.409c-0.001-0.001-0.121-0.532-0.459-0.801c-0.475-0.377-1.055-0.177-1.061-0.174
				l-0.084-0.261c0.027-0.009,0.691-0.218,1.304,0.212c0.613,0.432,0.687,0.824,0.693,0.867L89.759,5.409z"/>
		</g>
		<g>
			<path style="fill:#463014;" d="M89.726,5.471l-0.013-0.052c-0.002-0.005-0.12-0.519-0.441-0.774
				c-0.185-0.146-0.405-0.221-0.658-0.221c-0.197,0-0.344,0.047-0.359,0.053l-0.044,0.014l-0.113-0.347l0.044-0.014
				c0.02-0.006,0.195-0.062,0.443-0.062c0.329,0,0.64,0.097,0.898,0.279c0.631,0.442,0.708,0.852,0.714,0.897l0.006,0.036
				L89.726,5.471z M88.614,4.333c0.271,0,0.517,0.084,0.715,0.24c0.286,0.228,0.42,0.63,0.461,0.774L90.1,5.224
				c-0.029-0.109-0.152-0.438-0.67-0.802C89.183,4.249,88.9,4.16,88.585,4.16c-0.172,0-0.306,0.028-0.371,0.044l0.055,0.173
				C88.335,4.36,88.458,4.333,88.614,4.333z"/>
		</g>
	</g>
	<path style="fill:#463014;" d="M91.421,16.791L91.421,16.791c-0.133,0-0.271-0.049-0.366-0.131
		c-0.072-0.063-0.319-0.29-0.429-0.567c-0.04-0.104-0.03-0.187,0.028-0.247c0.04-0.041,0.124-0.089,0.295-0.089h0.121
		c0.146,0,0.391,0,0.599,0h0.2c0.131,0,0.223,0.026,0.276,0.083c0.069,0.07,0.047,0.159,0.027,0.208
		c-0.033,0.082-0.171,0.352-0.406,0.604C91.683,16.741,91.559,16.791,91.421,16.791z"/>
	<path style="fill:#463014;" d="M91.562,9.726l-0.485-0.031c0,0,0.123,0.219,0.204,0.502c0.091,0.321-0.083,0.789-0.083,0.789
		S91.845,10.252,91.562,9.726z"/>
	<g>
		<path style="fill:#463014;" d="M90.957,18.075c-1.731-0.133-2.341-1.769-2.341-2.109h0.452h-0.227h0.227
			c0.003,0.147,0.462,1.547,1.921,1.659L90.957,18.075z"/>
	</g>
	<path style="fill:#FFFFFF;" d="M90.469,15.145c-0.026-0.155-0.03-0.305,0.004-0.45c-0.132-0.098-0.367-0.135-0.545-0.193
		c-0.145-0.091-0.886,0.095-1.424-0.556c-0.673-0.816-0.53-1.302-0.53-1.302c-0.175,0.192-0.342,0.118-0.604,1.014
		c-0.265,0.895,0.123,1.519,0.846,2.146c0.341,0.296,0.822,0.418,1.237,0.465c-0.14-0.14,0.237-0.153,0.497-0.251
		c-0.021-0.21,0.014-0.413,0.17-0.576c0.094-0.099,0.215-0.158,0.34-0.205c0.008-0.016,0.013-0.031,0.021-0.046
		C90.476,15.175,90.471,15.16,90.469,15.145z"/>
	<path style="fill:#C9C9C9;" d="M89.946,16.011c-0.015-0.045-0.026-0.088-0.038-0.134c-0.012-0.049-0.07-0.188,0.002-0.029
		c-0.018-0.041-0.031-0.083-0.041-0.124c-1.168-0.002-2.186-0.806-1.989-2.493c-0.152-0.204-0.366,0.41-0.366,0.41
		s-0.586,1.699,0.927,2.358c0.503,0.22,0.948,0.377,1.053,0.313c0.218,0.044,0.416-0.108,0.491-0.208
		C89.969,16.073,89.957,16.042,89.946,16.011z"/>
	<path style="fill:#463014;" d="M90.448,14.899c0.002-0.142,0.031-0.279,0.101-0.418c0.004-0.01,0.01-0.018,0.016-0.027
		c-0.45-0.004-0.968-0.046-1.41-0.223c-0.485-0.194-1.092-0.858-1.195-1.639c0,0-0.914,0.706-0.646,2.214
		c0.252,1.417,1.437,1.879,2.79,1.956c0-0.008-0.153-0.324-0.104-0.517c-0.768,0.056-1.626-0.241-2.04-0.923
		c-0.38-0.625-0.274-1.69-0.118-1.846C88.221,14.677,89.591,14.921,90.448,14.899z"/>
	<path style="fill:#463014;" d="M92.878,16.761"/>
	<path style="fill:#463014;" d="M90.591,14.041c-0.243,0.715-0.741,1.292-0.741,1.292s0.684-0.031,0.723-0.152
		c0.027-0.089,0.616-1.469,0.842-3.085C91.202,12.445,90.61,13.979,90.591,14.041z"/>
	<path style="fill:#E78724;" d="M94.463,12.395c0,0,0.775,1.186,1.344,2.027c0.088,0.13-0.568,0.138-0.568,0.138L94.463,12.395z"/>
	<path style="fill:#E78724;" d="M94.094,9.938c0,0,0.234,0.583,0.362,0.892c0.138,0.335,0.669,0.503,0.669,0.503
		s-0.275-0.288-0.275-1.018c0-0.306-0.396-0.428-0.396-0.428L94.094,9.938z"/>
	<path style="fill:#E78724;" d="M94.33,10.267c0,0,0.479,0.57,1.368,0.25c0.889-0.319,0.979-1.458,0.979-1.777
		c0-0.319-1.687,0.319-1.915,0.456C94.535,9.333,94.101,9.879,94.33,10.267z"/>
	<path style="fill:#E78724;" d="M97.688,4.178c0,0-0.821-0.16-1.369,0.273c-0.547,0.434-0.705,0.775-0.705,0.775l0.922,0.731
		c0,0,0.446-0.207,0.582-0.799C97.254,4.565,97.164,4.292,97.688,4.178z"/>
	<path style="fill:#E78724;" d="M94.569,8.621c0.354-0.501,0.936-0.72,1.4-0.756c0.793-0.062,1.169,0.218,1.169,0.218
		s-1.299,0.055-1.672,0.546c-0.697,0.915-1.713,0.989-1.875,0.788c0.188,0.009,0.395-0.083,0.615-0.292
		C94.345,8.994,94.457,8.78,94.569,8.621z"/>
	<path style="fill:#E78724;" d="M96.761,10.395c0,0,1.439-0.496,1.166-0.997c-0.273-0.501-0.056-0.775-0.056-0.775
		s0.805,0.6,0.6,1.239c-0.127,0.392-0.337,0.675-1.498,1.219c-0.557,1.033-0.116,2.894-0.142,2.903
		c-0.044,0.015-0.781-0.365-0.73-2.106C96.117,11.345,96.159,10.615,96.761,10.395z"/>
	<path style="fill:#E78724;" d="M94.874,5.07c0.604,0.306,1.431,0.734,1.431,0.734l-0.325,0.163
		c0.031,0.051,0.046,0.081,0.046,0.081L95.691,6.2c0,0-0.816,0.59-1.316,0.97c0.167-0.513,0.655-1.319,0.655-1.319
		S95.17,5.48,94.874,5.07z"/>
	<path style="fill:#E78724;" d="M92.868,17.577c1.855,0,2.484-0.942,2.484-0.942l-0.29,0.706c-0.109,0.306-1.279,1.256-2.192,1.256"
		/>
	<path style="fill:#E78724;" d="M95.148,15.997c0,0-0.171,1.045-0.854,1.045c-0.581,0-0.752-0.883-0.752-1.064L95.148,15.997z"/>
	<path style="fill:#E78724;" d="M96.286,14.424c-0.06-0.168-0.272-0.844-0.341-1.46c-0.082-0.736-0.053-1.814-0.053-1.814
		s0.183,0.707,0.343,0.82c0.158,0.114,0.456,0.89,0.456,0.89s0.157,1.154,0.234,1.541C96.716,14.443,96.54,14.318,96.286,14.424z"/>
	<path style="fill:#E78724;" d="M97.938,9.851c0,0-0.388-0.138-0.502-0.981c-0.113-0.843,0.137-1.572,0.137-1.572
		s-0.022,1.163,0.115,1.39c0.137,0.229,0.25,0.296,0.41,0.593C98.257,9.577,98.029,9.759,97.938,9.851z"/>
	<path style="fill:#87CCEE;" d="M95.882,5.977"/>
	<path style="fill:#FDC168;" d="M97.475,4.378l0.08-0.051C97.787,4.335,97.475,4.378,97.475,4.378z"/>
	<path style="fill:#FBA919;" d="M94.558,4.82c0,0,0.364-0.06,0.548-0.333c0.182-0.274,0.697-0.821,1.521-0.828
		c0.823-0.006,1.638,0.219,1.638,0.219l-0.71,0.449c-0.075-0.002-0.208-0.001-0.426,0.006c-0.892,0.03-1.028,0.913-1.028,0.913
		l-3.146-0.434"/>
	<path style="fill:#FFFFFF;" d="M94.255,9.696c0,0,0.425,0.426,1.078,0.29c0.654-0.137,1.049-0.426,1.079-0.927
		c0.031-0.501-0.138-0.699-0.138-0.699s-0.729,0.228-1.078,0.532C94.846,9.195,94.588,9.682,94.255,9.696z"/>
	<path style="fill:#C9C9C9;" d="M94.769,9.544c0,0,0.367,0.168,0.78,0.032c0.541-0.181,0.577-0.742,0.577-0.742
		s0.33,0.972-0.598,1.159c-0.745,0.15-1.185-0.281-1.185-0.281L94.769,9.544z"/>
	<path style="fill:#463014;" d="M94.345,14.993"/>
	<path style="fill:#463014;" d="M97.182,5.884c0.3-0.25,0.075-0.481,0.1-0.766c0.013-0.15,0.024-0.294,0.075-0.372
		c0.275-0.437,0.931-0.57,0.938-0.571l0.307-0.061l-0.204-0.237c-0.026-0.031-0.859-0.826-2.149-0.409
		c-0.904,0.291-1.572,1.278-1.597,1.318l0.452,0.212c0.007-0.009,0.534-0.937,1.309-1.186c0.625-0.202,1.203-0.01,1.45,0.116
		c-0.264,0.105-0.606,0.296-0.814,0.623c-0.097,0.154-0.112,0.348-0.129,0.536c-0.021,0.25-0.041,0.484-0.225,0.637L97.182,5.884z"
		/>
	<path style="fill:#463014;" d="M97.985,9.53c0,0-0.38-0.47-0.491-1.385c-0.044-0.36,0.034-1.072,0.159-1.346
		c-0.022,0.673,0.148,1.346,0.148,1.346S97.917,9.394,97.985,9.53z"/>
	<path style="fill:#463014;" d="M95.986,5.409c0.001-0.001,0.121-0.532,0.458-0.801c0.476-0.377,1.056-0.177,1.061-0.174
		l0.084-0.261c-0.027-0.009-0.691-0.218-1.303,0.212c-0.613,0.432-0.687,0.824-0.694,0.867L95.986,5.409z"/>
	<path style="fill:#463014;" d="M96.795,9.193c0,0,0.199-0.285,0.162-0.599c-0.017-0.155-0.089-0.313-0.217-0.37
		c-0.238-0.104-0.343,0.165-0.343,0.165S96.731,8.472,96.795,9.193z"/>
	<path style="fill:#463014;" d="M94.345,14.993"/>
	<path style="fill:#463014;" d="M94.609,9.626c-0.008,0.016-0.013,0.025-0.013,0.025s0.621,0.465,1.257-0.007
		c0.341-0.252,0.309-0.88,0.204-1.145c-0.271,0.062-0.501,0.173-0.693,0.302c0.242-0.217,0.455-0.377,0.455-0.381l0.276-0.078
		l0.536-0.184c0.007,0.041,0.203,0.959-0.362,1.583c-0.251,0.278-1.425,0.899-1.982-0.163L94.609,9.626z"/>
	<path style="fill:#463014;" d="M94.667,9.695c-0.349,0.532-1.23,0.228-1.216-0.334c0,0,0.59,0.326,1.11-0.273
		c0.304-0.349,1.278-1.312,2.599-0.993C96.248,8.294,95.04,9.127,94.667,9.695z"/>
	<g>
		<path style="fill:#463014;" d="M94.345,14.993"/>
	</g>
	<path style="fill:#463014;" d="M97.283,11.196c-0.085,0.048-0.381,0.355-0.381,0.813c-0.001,0.231,0.023,1.388,0.136,2.094
		c-0.171,0.112-0.289,0.136-0.46,0.249c-0.086-0.818-0.146-2.004-0.119-2.483c0.033-0.546,0.326-0.912,0.596-1.068
		c0.085-0.049,0.174-0.097,0.263-0.145c0.465-0.251,0.945-0.51,0.945-0.954c0-0.347-0.135-0.455-0.278-0.57L97.969,9.12
		c-0.094-0.077-0.202-0.164-0.266-0.306c-0.172-0.389-0.201-1.382,0-1.633c0.101-0.125,0.371-0.547,0.293-0.831
		c-0.029-0.108-0.098-0.188-0.21-0.245c-0.117-0.061-0.274-0.091-0.471-0.091c-0.382,0-0.809,0.116-1.028,0.187
		c-0.784,0.248-1.729,0.965-2.001,1.178c-0.008,0.006-0.012,0.01-0.013,0.01L94.1,7.511l0.108-0.183
		c0.007-0.012,0.693-1.141,1.923-1.556c0.24-0.081,0.709-0.216,1.171-0.216c0.274,0,0.507,0.048,0.692,0.143
		c0.226,0.116,0.377,0.299,0.441,0.532c0.155,0.569-0.35,1.203-0.368,1.224c-0.06,0.105-0.084,0.869,0.053,1.175
		c0.018,0.042,0.07,0.084,0.135,0.136c0.021,0.017,0.044,0.034,0.068,0.053c0.19,0.145,0.481,0.364,0.481,0.869
		c0,0.691-0.7,1.065-1.262,1.367C97.451,11.103,97.362,11.15,97.283,11.196z"/>
	<path style="fill:#463014;" d="M96.447,5.803c-0.11-0.188-0.396-0.553-1.053-0.873c-0.732-0.357-1.581-0.539-2.521-0.539l0,0
		c0,0,0,0-0.001,0H92.87l0,0c-0.939,0-1.788,0.182-2.52,0.539c-0.657,0.32-0.942,0.685-1.055,0.873L89.25,5.866l0.562,0.125
		l0.018-0.023l0.01-0.02c0.009-0.038,0.083-0.238,0.711-0.544c0.669-0.327,1.452-0.492,2.322-0.493c0.871,0,1.653,0.166,2.322,0.493
		c0.628,0.306,0.702,0.506,0.712,0.544l0.009,0.02l0.018,0.023l0.562-0.125L96.447,5.803z"/>
	<g>
		<g>
			<path style="fill:#463014;" d="M97.182,5.884c0.3-0.25,0.075-0.481,0.1-0.766c0.013-0.15,0.024-0.294,0.075-0.372
				c0.275-0.437,0.931-0.57,0.938-0.571l0.307-0.061l-0.204-0.237c-0.026-0.031-0.859-0.826-2.149-0.409
				c-0.904,0.291-1.572,1.278-1.597,1.318l0.452,0.212c0.007-0.009,0.534-0.937,1.309-1.186c0.625-0.202,1.203-0.01,1.45,0.116
				c-0.264,0.105-0.606,0.296-0.814,0.623c-0.097,0.154-0.112,0.348-0.129,0.536c-0.021,0.25-0.041,0.484-0.225,0.637L97.182,5.884z
				"/>
		</g>
		<g>
			<path style="fill:#463014;" d="M96.601,5.742l0.064-0.053c0.167-0.14,0.188-0.366,0.207-0.606
				c0.017-0.193,0.033-0.393,0.137-0.556c0.189-0.3,0.491-0.488,0.74-0.6C97.6,3.864,97.323,3.77,96.977,3.77
				c-0.189,0-0.376,0.029-0.552,0.086c-0.719,0.231-1.226,1.069-1.283,1.167l-0.021,0.035l-0.537-0.252l0.028-0.043
				c0.005-0.01,0.678-1.034,1.621-1.337c0.25-0.082,0.505-0.123,0.752-0.123c0.905,0,1.441,0.542,1.445,0.547l0.255,0.296
				L98.303,4.22c-0.007,0.001-0.645,0.134-0.908,0.551c-0.043,0.069-0.055,0.206-0.068,0.351c-0.007,0.087,0.012,0.171,0.03,0.252
				c0.037,0.176,0.076,0.359-0.147,0.544l-0.017,0.016L96.601,5.742z"/>
		</g>
	</g>
	<g>
		<g>
			<path style="fill:#463014;" d="M95.986,5.409c0.001-0.001,0.121-0.532,0.458-0.801c0.476-0.377,1.056-0.177,1.061-0.174
				l0.084-0.261c-0.027-0.009-0.691-0.218-1.303,0.212c-0.613,0.432-0.687,0.824-0.694,0.867L95.986,5.409z"/>
		</g>
		<g>
			<path style="fill:#463014;" d="M95.542,5.281l0.005-0.036c0.007-0.045,0.084-0.455,0.714-0.897
				c0.259-0.183,0.569-0.279,0.899-0.279c0.247,0,0.424,0.056,0.443,0.062l0.043,0.014l-0.112,0.347L97.49,4.477
				c-0.016-0.005-0.163-0.053-0.36-0.053c-0.252,0-0.474,0.075-0.657,0.221c-0.321,0.255-0.44,0.769-0.442,0.774l-0.012,0.052
				L95.542,5.281z M97.475,4.378l0.057-0.173C97.466,4.188,97.331,4.16,97.16,4.16c-0.315,0-0.599,0.088-0.847,0.262
				c-0.518,0.364-0.64,0.692-0.668,0.802l0.31,0.124c0.04-0.145,0.175-0.547,0.461-0.774c0.197-0.156,0.443-0.24,0.714-0.24
				C97.286,4.333,97.41,4.36,97.475,4.378z"/>
		</g>
	</g>
	<path style="fill:#463014;" d="M93.978,16.652c-0.235-0.253-0.374-0.522-0.407-0.604c-0.019-0.049-0.042-0.138,0.027-0.208
		c0.055-0.057,0.146-0.083,0.276-0.083h0.201c0.209,0,0.452,0,0.598,0h0.121c0.171,0,0.256,0.048,0.296,0.089
		c0.059,0.061,0.067,0.144,0.028,0.247c-0.109,0.277-0.357,0.504-0.429,0.567c-0.096,0.082-0.233,0.131-0.366,0.131l0,0
		C94.184,16.791,94.063,16.741,93.978,16.652z"/>
	<path style="fill:#463014;" d="M94.182,9.726l0.484-0.031c0,0-0.123,0.219-0.204,0.502c-0.091,0.321,0.084,0.789,0.084,0.789
		S93.898,10.252,94.182,9.726z"/>
	<path style="fill:#E78724;" d="M92.872,7.99c-0.31,0-0.714-0.008-1.017-0.226c0,0,0.396,0.696,1.016,0.696l0.001-0.088l0.001,0.088
		c0.62,0,1.017-0.696,1.017-0.696C93.587,7.982,93.181,7.99,92.872,7.99z"/>
	<path style="fill:#463014;" d="M93.726,7.987c-0.312,0.188-0.589,0.253-0.854,0.259c-0.265-0.006-0.542-0.071-0.853-0.259
		c0,0,0.452,0.552,0.851,0.557l0,0c0,0,0.001,0,0.002,0s0.001,0,0.002,0l0,0C93.272,8.539,93.726,7.987,93.726,7.987z"/>
	<g>
		<path style="fill:#463014;" d="M94.789,18.075l-0.035-0.45c1.46-0.112,1.919-1.512,1.921-1.659h0.453
			C97.128,16.307,96.519,17.942,94.789,18.075z"/>
	</g>
	<path style="fill:#FFFFFF;" d="M95.275,15.145c0.027-0.155,0.03-0.305-0.003-0.45c0.131-0.098,0.367-0.135,0.545-0.193
		c0.145-0.091,0.886,0.095,1.423-0.556c0.674-0.816,0.531-1.302,0.531-1.302c0.174,0.192,0.341,0.118,0.603,1.014
		c0.266,0.895-0.123,1.519-0.845,2.146c-0.341,0.296-0.823,0.418-1.238,0.465c0.14-0.14-0.235-0.153-0.497-0.251
		c0.021-0.21-0.014-0.413-0.169-0.576c-0.094-0.099-0.216-0.158-0.34-0.205c-0.008-0.016-0.014-0.031-0.021-0.046
		C95.268,15.175,95.272,15.16,95.275,15.145z"/>
	<path style="fill:#C9C9C9;" d="M95.799,16.011c0.015-0.045,0.025-0.088,0.037-0.134c0.013-0.049,0.071-0.188-0.002-0.029
		c0.019-0.041,0.031-0.083,0.041-0.124c1.168-0.002,2.187-0.806,1.989-2.493c0.153-0.204,0.367,0.41,0.367,0.41
		s0.585,1.699-0.927,2.358c-0.503,0.22-0.948,0.377-1.054,0.313c-0.218,0.044-0.416-0.108-0.491-0.208
		C95.774,16.073,95.788,16.042,95.799,16.011z"/>
	<path style="fill:#463014;" d="M95.296,14.899c-0.001-0.142-0.03-0.279-0.1-0.418c-0.005-0.01-0.011-0.018-0.016-0.027
		c0.45-0.004,0.969-0.046,1.41-0.223c0.484-0.194,1.091-0.858,1.195-1.639c0,0,0.914,0.706,0.646,2.214
		c-0.253,1.417-1.437,1.879-2.79,1.956c0-0.008,0.152-0.324,0.104-0.517c0.768,0.056,1.627-0.241,2.041-0.923
		c0.379-0.625,0.272-1.69,0.117-1.846C97.523,14.677,96.154,14.921,95.296,14.899z"/>
	<g>
		<path style="fill:#463014;" d="M92.868,16.761"/>
		<path style="fill:#463014;" d="M95.842,15.255c-0.161-0.175-0.459-0.382-1.143-0.382c0,0-1.299-0.001-1.825-0.002l0,0
			c-0.001,0-0.001,0-0.002,0H92.87l0,0c-0.526,0.001-1.825,0.002-1.825,0.002c-0.683,0-0.981,0.207-1.142,0.382
			c-0.236,0.255-0.273,0.608-0.109,1.05c0.433,1.177,1.04,2.372,3.076,2.374l0,0c0,0,0.001,0,0.002,0s0.001,0,0.002,0l0,0
			c2.036-0.002,2.644-1.197,3.077-2.374C96.114,15.863,96.076,15.51,95.842,15.255z M95.524,16.223
			c-0.206,0.591-0.761,2.021-2.652,2.022c-1.892-0.002-2.447-1.432-2.651-2.022c-0.115-0.328-0.106-0.57,0.025-0.721
			c0.091-0.104,0.297-0.227,0.77-0.227h0.495c0.363,0,0.82-0.001,1.361-0.001c0.542,0,0.998,0.001,1.362,0.001h0.494
			c0.473,0,0.679,0.123,0.77,0.227C95.63,15.653,95.638,15.895,95.524,16.223z"/>
	</g>
	<path style="fill:#463014;" d="M95.154,14.041c0.244,0.715,0.74,1.292,0.74,1.292s-0.683-0.031-0.722-0.152
		c-0.027-0.089-0.616-1.469-0.843-3.085C94.544,12.445,95.133,13.979,95.154,14.041z"/>
</g>
</svg>
