<svg xmlns="http://www.w3.org/2000/svg" width="153.806" height="20" viewBox="0 0.5 153.806 20"><linearGradient id="a" gradientUnits="userSpaceOnUse" x1="152.904" y1="-64.945" x2="152.904" y2="-46.056" gradientTransform="matrix(1 0 0 -1 -76 -45)"><stop offset="0" stop-color="#de9527"/><stop offset="1" stop-color="#f6a61c"/></linearGradient><path d="M2.223 19.945a1.67 1.67 0 0 1-1.667-1.668V2.723c0-.92.747-1.667 1.667-1.667h149.36c.918 0 1.667.747 1.667 1.667v15.554c0 .92-.75 1.668-1.668 1.668H2.222z" fill="url(#a)"/><linearGradient id="b" gradientUnits="userSpaceOnUse" x1="192.444" y1="611.5" x2="192.444" y2="591.5" gradientTransform="translate(-152 -591)"><stop offset="0" stop-color="#8d6226"/><stop offset="1" stop-color="#a9732b"/></linearGradient><path d="M80.89 20.5H2c-1.1 0-2-.9-2-2v-16c0-1.1.9-2 2-2h78.89v20z" fill="url(#b)"/><path d="M151.583 1.61c.612 0 1.11.5 1.11 1.112v15.555a1.11 1.11 0 0 1-1.11 1.11H2.223c-.612 0-1.11-.497-1.11-1.11V2.723c0-.612.498-1.11 1.11-1.11l149.36-.002m0-1.11H2.223A2.23 2.23 0 0 0 0 2.723v15.554C0 19.5 1 20.5 2.223 20.5h149.36c1.222 0 2.222-1 2.222-2.223V2.723c0-1.223-1-2.223-2.222-2.223z" fill="#ba802b"/><path d="M2.223.5A2.23 2.23 0 0 0 0 2.723v15.554C0 19.5 1 20.5 2.223 20.5h78.665V.5H2.223zm77.554 18.89H2.223c-.612 0-1.11-.5-1.11-1.112V2.723c0-.612.498-1.11 1.11-1.11h77.554v17.776z" fill="#8d6226"/><g opacity=".5"><path d="M6.967 7.488h2.666c1.215 0 2.097.173 2.646.52s.822.895.822 1.648c0 .512-.12.932-.36 1.26s-.56.525-.958.592v.06c.543.12.935.347 1.175.68s.36.772.36 1.323c0 .782-.283 1.392-.848 1.83s-1.33.655-2.3.655H6.967V7.488zm1.816 3.393h1.055c.492 0 .85-.075 1.07-.228s.33-.404.33-.756c0-.328-.12-.563-.36-.706s-.62-.214-1.14-.214h-.955v1.905zm0 1.442v2.232h1.184c.5 0 .87-.096 1.107-.287s.357-.484.357-.88c0-.71-.507-1.065-1.522-1.065H8.783zM22.002 7.488v5.543c0 .634-.142 1.19-.425 1.665s-.692.842-1.228 1.096-1.17.382-1.9.382c-1.1 0-1.956-.282-2.565-.847s-.914-1.337-.914-2.317v-5.52h1.812v5.244c0 .66.133 1.145.398 1.453s.705.463 1.318.463c.594 0 1.024-.155 1.292-.466s.4-.798.4-1.462V7.488h1.812zM24.1 16.055V7.488h1.816v8.566H24.1zM28.073 16.055V7.488h1.816v7.066h3.474v1.5h-5.29zM38.156 16.055H36.34V9h-2.326V7.488h6.47V9h-2.327v7.055zM53.262 16.055h-2.068l-1.16-4.5c-.043-.16-.116-.49-.22-.993s-.163-.84-.18-1.01c-.022.21-.08.55-.175 1.016s-.167.8-.218 1l-1.154 4.487h-2.062L43.84 7.488h1.787l1.096 4.676c.19.863.33 1.61.416 2.244.022-.223.076-.567.16-1.034s.163-.83.237-1.087l1.248-4.8h1.717l1.248 4.8c.055.215.123.543.205.984s.145.82.188 1.138c.04-.305.102-.685.188-1.14s.165-.823.235-1.104l1.09-4.676h1.787l-2.18 8.567zM56.52 16.055V7.488h1.816v8.566H56.52zM63.797 16.055H61.98V9h-2.325V7.488h6.47V9h-2.327v7.055zM74.46 16.055h-1.81v-3.697h-3.393v3.697H67.44V7.488h1.817v3.357h3.393V7.488h1.81v8.567z"/></g><g fill="#FFF"><path d="M6.967 6.378h2.666c1.215 0 2.097.173 2.646.52s.822.895.822 1.648c0 .512-.12.932-.36 1.26s-.56.525-.958.592v.06c.543.12.935.347 1.175.68s.36.772.36 1.323c0 .782-.283 1.392-.848 1.83s-1.33.655-2.3.655H6.967V6.378zM8.783 9.77h1.055c.492 0 .85-.075 1.07-.228s.33-.404.33-.756c0-.328-.12-.563-.36-.706s-.62-.214-1.14-.214h-.955V9.77zm0 1.442v2.232h1.184c.5 0 .87-.096 1.107-.287s.357-.484.357-.88c0-.71-.507-1.065-1.522-1.065H8.783zM22.002 6.378v5.543c0 .634-.142 1.19-.425 1.665s-.692.842-1.228 1.096-1.17.382-1.9.382c-1.1 0-1.956-.282-2.565-.847s-.914-1.337-.914-2.317v-5.52h1.812v5.244c0 .66.133 1.145.398 1.453s.705.463 1.318.463c.594 0 1.024-.155 1.292-.466s.4-.798.4-1.462V6.378h1.812zM24.1 14.944V6.378h1.816v8.566H24.1zM28.073 14.944V6.378h1.816v7.066h3.474v1.5h-5.29zM38.156 14.944H36.34V7.89h-2.326V6.378h6.47V7.89h-2.327v7.054zM53.262 14.944h-2.068l-1.16-4.5c-.043-.16-.116-.49-.22-.993s-.163-.838-.18-1.01c-.022.21-.08.55-.175 1.017s-.167.8-.218 1l-1.154 4.487h-2.062L43.84 6.378h1.787l1.096 4.676c.19.863.33 1.61.416 2.244.022-.223.076-.567.16-1.034s.163-.83.237-1.087l1.248-4.8h1.717l1.248 4.8c.055.215.123.543.205.984s.145.82.188 1.138c.04-.305.102-.685.188-1.14s.165-.823.235-1.104l1.09-4.676h1.787l-2.18 8.566zM56.52 14.944V6.378h1.816v8.566H56.52zM63.797 14.944H61.98V7.89h-2.325V6.378h6.47V7.89h-2.327v7.054zM74.46 14.944h-1.81v-3.697h-3.393v3.697H67.44V6.378h1.817v3.357h3.393V6.378h1.81v8.566z"/></g><g opacity=".5" fill="#f2f2f2"><path d="M108.56 11.04h3.698v4.616c-1.004.344-2.107.516-3.31.516-1.32 0-2.34-.383-3.062-1.148s-1.082-1.857-1.082-3.275c0-1.384.395-2.46 1.184-3.23s1.895-1.154 3.316-1.154c.54 0 1.05.05 1.527.152s.896.23 1.25.387l-.73 1.816a4.525 4.525 0 0 0-2.034-.456c-.676 0-1.197.22-1.566.66s-.555 1.066-.555 1.883c0 .8.168 1.41.502 1.83s.814.63 1.443.63a4.2 4.2 0 0 0 .95-.1v-1.34h-1.53v-1.788zM116.32 12.938v3.117h-2.315V7.488h2.807c2.328 0 3.492.844 3.492 2.53 0 .993-.484 1.76-1.453 2.304l2.497 3.732h-2.625l-1.816-3.117h-.587zm0-1.74h.433c.81 0 1.213-.358 1.213-1.073 0-.59-.396-.885-1.19-.885h-.456v1.957zM129.41 7.488v5.156c0 1.12-.317 1.99-.952 2.604s-1.55.923-2.746.923c-1.168 0-2.064-.298-2.69-.895s-.942-1.457-.942-2.578v-5.21h2.326v5.028c0 .605.113 1.045.34 1.318s.56.41 1.002.41c.473 0 .816-.136 1.03-.407s.317-.716.317-1.333V7.488h2.314zM139.364 16.055h-3.035l-3.13-6.035h-.053c.074.95.11 1.674.11 2.174v3.86h-2.05V7.49h3.023l3.117 5.953h.035a34.23 34.23 0 0 1-.082-2.08V7.49h2.062v8.567zM144.995 16.055h-2.314V9.38h-2.09V7.49h6.49V9.38h-2.085v6.675z"/></g><g fill="#333"><path d="M108.56 9.93h3.698v4.616c-1.004.344-2.107.516-3.31.516-1.32 0-2.34-.383-3.062-1.148s-1.082-1.857-1.082-3.275c0-1.384.395-2.46 1.184-3.23s1.895-1.154 3.316-1.154c.54 0 1.05.05 1.527.152s.896.23 1.25.387l-.73 1.815a4.525 4.525 0 0 0-2.033-.457c-.676 0-1.197.22-1.566.66s-.554 1.066-.554 1.883c0 .8.168 1.41.502 1.83s.814.63 1.443.63a4.2 4.2 0 0 0 .95-.1v-1.34h-1.53V9.928zM116.32 11.827v3.117h-2.315V6.378h2.807c2.328 0 3.492.844 3.492 2.53 0 .993-.484 1.76-1.453 2.304l2.497 3.732h-2.625l-1.816-3.117h-.587zm0-1.74h.433c.81 0 1.213-.357 1.213-1.072 0-.59-.396-.885-1.19-.885h-.456v1.957zM129.41 6.378v5.156c0 1.12-.317 1.99-.952 2.604s-1.55.923-2.746.923c-1.168 0-2.064-.298-2.69-.895s-.942-1.457-.942-2.578v-5.21h2.326v5.028c0 .605.113 1.045.34 1.318s.56.41 1.002.41c.473 0 .816-.136 1.03-.407s.317-.716.317-1.333V6.378h2.314zM139.364 14.944h-3.035L133.2 8.91h-.053c.074.948.11 1.673.11 2.173v3.86h-2.05V6.38h3.023l3.117 5.953h.035a34.23 34.23 0 0 1-.082-2.08V6.38h2.062v8.566zM144.995 14.944h-2.314V8.27h-2.09V6.38h6.49V8.27h-2.085v6.674z"/></g><g><path d="M87.704 6.567s.273 1.057.313 1.41c.04.352-.704 1.135-.704 1.525 0 .392.156 1.096 1.02 1.45.86.35.976 1.25.976 1.8 0 .548-.313 1.604-.313 1.604s-.195 2.622.86 3.093c1.06.468.823.468 1.06.468.233 0 1.955.705 2.973.43 1.02-.273 1.292-.586 1.292-.586s1.02.077 1.33-.822c.312-.9.51-2.778.393-3.64-.118-.862-.274-1.997.43-2.388.705-.392 1.448-.86 1.33-1.252-.116-.392-.742-.94-.742-.94s-.158-.978-.04-1.213c.117-.235.82-.822.432-1.253-.392-.43-1.097-.43-1.097-.43l-.9.078s-1.525-1.37-3.522-1.292c-1.995.08-3.25 1.292-3.25 1.292s-.664-.235-1.25 0c-.592.235-.708 0-.592.665z" fill="#fba919"/><path d="M91.28 12.395s-.774 1.186-1.342 2.027c-.09.13.567.138.567.138l.776-2.165zM91.65 9.938s-.233.583-.36.892c-.14.335-.67.503-.67.503s.274-.288.274-1.018c0-.306.396-.428.396-.428l.36.05z" fill="#e78724"/><path d="M91.414 10.267s-.478.57-1.368.25c-.89-.32-.98-1.458-.98-1.777 0-.32 1.69.32 1.917.456.226.137.66.683.43 1.07zM88.056 4.178s.82-.16 1.368.273c.548.435.706.776.706.776l-.92.732s-.447-.207-.583-.8c-.137-.593-.046-.866-.57-.98z" fill="#e78724"/><path d="M91.175 8.62c-.354-.5-.936-.72-1.4-.755-.792-.062-1.17.218-1.17.218s1.3.055 1.674.546c.695.914 1.712.988 1.874.787-.188.01-.395-.083-.615-.292-.142-.13-.252-.345-.365-.504zM88.983 10.395s-1.44-.496-1.166-.997c.272-.5.055-.775.055-.775s-.804.6-.6 1.24c.127.39.338.674 1.498 1.218.558 1.034.116 2.895.143 2.904.044.015.78-.365.73-2.106-.015-.533-.057-1.263-.66-1.483zM90.87 5.07c-.603.306-1.43.734-1.43.734l.325.163-.047.08.335.153s.815.59 1.315.97c-.166-.513-.655-1.32-.655-1.32s-.138-.37.158-.78zM92.878 17.577c-1.857 0-2.485-.942-2.485-.942l.29.706c.11.307 1.28 1.257 2.19 1.257" fill="#e78724"/><path d="M90.596 15.997s.17 1.045.854 1.045c.58 0 .752-.883.752-1.064l-1.606.02zM89.46 14.424c.06-.168.27-.844.34-1.46.08-.736.052-1.814.052-1.814s-.183.707-.343.82c-.16.114-.456.89-.456.89s-.158 1.154-.234 1.54c.208.043.384-.082.64.024zM87.806 9.85s.387-.137.5-.98c.114-.843-.136-1.572-.136-1.572s.022 1.163-.114 1.39c-.136.23-.25.296-.41.593-.16.297.07.48.16.57z" fill="#e78724"/><path d="M88.268 4.378l-.08-.05c-.23.007.08.05.08.05z" fill="#fdc168"/><path d="M91.185 4.82s-.364-.06-.546-.333c-.184-.274-.7-.82-1.523-.828a6.864 6.864 0 0 0-1.64.218l.712.45c.074-.003.206-.002.424.005.893.03 1.03.913 1.03.913l3.146-.434" fill="#fba919"/><path d="M91.49 9.696s-.425.426-1.078.29c-.654-.137-1.05-.426-1.08-.927-.03-.502.138-.7.138-.7s.73.228 1.08.532.606.79.94.804z" fill="#FFF"/><path d="M90.975 9.544s-.368.168-.78.032c-.542-.18-.577-.742-.577-.742s-.33.972.597 1.16c.746.15 1.187-.282 1.187-.282l-.427-.168z" fill="#c9c9c9"/><path d="M91.238 4.614c-.04-.833.645-1.498.88-1.526.013.142-.013.692.224.862.07-.45.302-.946 1.223-1.27-.197.52-.026.96.055 1.163.628-.57 1.053-.477 1.053-.477s-.438.754-.267 1.248c-1.264-.1-3.162.134-3.168 0zM88.562 5.884c-.3-.25-.076-.48-.1-.766-.013-.15-.025-.294-.076-.372-.275-.437-.93-.57-.936-.57l-.308-.062.204-.237c.026-.03.858-.826 2.15-.41.902.292 1.57 1.28 1.595 1.32l-.45.212c-.006-.01-.534-.938-1.31-1.187-.623-.202-1.2-.01-1.45.116.265.104.608.295.816.622.097.154.112.348.13.536.02.25.04.484.223.637l-.488.16zM87.76 9.53s.38-.47.49-1.385c.044-.36-.034-1.072-.16-1.346.024.672-.145 1.345-.145 1.345s-.118 1.25-.186 1.385z" fill="#463014"/><path d="M89.76 5.41c-.002-.002-.122-.533-.46-.802-.475-.377-1.055-.177-1.06-.174l-.085-.26c.027-.01.69-.22 1.304.21.612.433.686.825.692.868l-.393.157zM88.95 9.193s-.2-.285-.164-.6c.02-.154.09-.312.22-.37.236-.103.342.166.342.166s-.335.082-.4.803z" fill="#463014"/><path d="M91.135 9.626c.01.016.013.025.013.025s-.62.466-1.258-.006c-.34-.252-.31-.88-.205-1.145.272.06.503.172.694.3-.243-.216-.456-.376-.456-.38l-.275-.078-.54-.184c-.005.04-.2.958.364 1.583.25.28 1.425.9 1.982-.162l-.32.048z" fill="#463014"/><path d="M91.077 9.695c.35.532 1.23.228 1.215-.334 0 0-.588.327-1.11-.272-.303-.35-1.276-1.312-2.598-.993.912.2 2.12 1.032 2.493 1.6z" fill="#463014"/><path d="M88.462 11.196c.083.048.38.355.38.813 0 .23-.022 1.387-.137 2.093.172.112.29.136.462.25.085-.82.146-2.005.12-2.484-.035-.547-.327-.913-.598-1.07a10.71 10.71 0 0 0-.264-.144c-.465-.25-.945-.51-.945-.954 0-.347.136-.455.28-.57l.015-.012a.857.857 0 0 0 .265-.306c.174-.39.2-1.382 0-1.633-.1-.124-.37-.546-.292-.83a.377.377 0 0 1 .21-.245c.116-.06.274-.09.47-.09.384 0 .81.115 1.03.186.78.25 1.728.966 2 1.18l.013.01.175.12-.108-.182c-.007-.012-.694-1.14-1.923-1.556-.24-.08-.708-.216-1.17-.216-.276 0-.51.048-.693.143a.837.837 0 0 0-.44.53c-.155.57.35 1.204.367 1.225.06.105.084.87-.053 1.175a.447.447 0 0 1-.135.136l-.068.053c-.19.144-.482.363-.482.868 0 .69.7 1.065 1.264 1.367.09.048.178.095.258.14z" fill="#463014"/><path d="M88.562 5.884c-.3-.25-.076-.48-.1-.766-.013-.15-.025-.294-.076-.372-.275-.437-.93-.57-.936-.57l-.308-.062.204-.237c.026-.03.858-.826 2.15-.41.902.292 1.57 1.28 1.595 1.32l-.45.212c-.006-.01-.534-.938-1.31-1.187-.623-.202-1.2-.01-1.45.116.265.104.608.295.816.622.097.154.112.348.13.536.02.25.04.484.223.637l-.488.16z" fill="#463014"/><path d="M88.552 5.935l-.02-.016c-.223-.187-.183-.37-.145-.546a.887.887 0 0 0 .03-.252c-.014-.146-.025-.282-.07-.35-.262-.418-.9-.55-.906-.552l-.383-.076.255-.296c.004-.005.54-.547 1.446-.547.247 0 .5.043.752.124.942.304 1.615 1.328 1.622 1.338l.027.043-.537.252-.022-.034c-.057-.1-.563-.936-1.282-1.167a1.785 1.785 0 0 0-.552-.085c-.345 0-.622.095-.77.158.247.112.548.3.738.6.104.163.12.363.138.556.02.24.04.466.207.606l.062.052-.59.193z" fill="#463014"/><path d="M89.76 5.41c-.002-.002-.122-.533-.46-.802-.475-.377-1.055-.177-1.06-.174l-.085-.26c.027-.01.69-.22 1.304.21.612.433.686.825.692.868l-.393.157z" fill="#463014"/><path d="M89.726 5.47l-.013-.05c-.002-.006-.12-.52-.44-.775a1.033 1.033 0 0 0-.66-.22c-.196 0-.343.046-.358.052l-.044.014-.112-.346.044-.014c.02-.006.195-.062.443-.062.33 0 .64.097.898.28.63.44.708.85.714.896l.006.036-.477.19zm-1.112-1.137c.27 0 .517.084.715.24.285.228.42.63.46.774l.31-.123c-.03-.11-.152-.438-.67-.802a1.442 1.442 0 0 0-.845-.262c-.172 0-.306.028-.37.044l.054.173c.065-.017.188-.044.344-.044zM91.42 16.79a.576.576 0 0 1-.365-.13c-.072-.063-.32-.29-.43-.567-.04-.104-.03-.187.03-.247.04-.04.123-.09.294-.09H91.87c.13 0 .222.027.275.084.07.07.047.16.027.208-.033.082-.17.352-.406.604a.466.466 0 0 1-.345.14zM91.562 9.726l-.485-.03s.123.218.204.5c.092.322-.082.79-.082.79s.647-.734.364-1.26zM90.957 18.075c-1.73-.133-2.34-1.77-2.34-2.11h.45-.226.228c.003.148.462 1.548 1.92 1.66l-.03.45z" fill="#463014"/><path d="M90.47 15.145a1.134 1.134 0 0 1 .003-.45c-.132-.098-.367-.135-.545-.193-.145-.09-.886.095-1.424-.556-.673-.816-.53-1.302-.53-1.302-.175.192-.342.118-.604 1.014-.265.895.123 1.52.846 2.146.34.296.822.418 1.237.465-.14-.14.237-.154.497-.252-.02-.21.014-.413.17-.576a.88.88 0 0 1 .34-.205l.02-.046c-.004-.015-.01-.03-.01-.045z" fill="#FFF"/><path d="M89.946 16.01c-.015-.044-.026-.087-.038-.133-.012-.05-.07-.188.002-.03a.75.75 0 0 1-.04-.123c-1.17-.002-2.187-.806-1.99-2.493-.152-.203-.366.41-.366.41s-.586 1.7.927 2.36c.504.22.95.376 1.054.312.218.044.416-.108.49-.208a.736.736 0 0 1-.038-.093z" fill="#c9c9c9"/><path d="M90.448 14.9a.935.935 0 0 1 .1-.42c.005-.01.01-.017.017-.026-.45-.004-.968-.046-1.41-.223-.485-.193-1.092-.857-1.195-1.638 0 0-.914.706-.646 2.214.252 1.417 1.437 1.88 2.79 1.956 0-.008-.153-.324-.104-.517-.768.056-1.626-.24-2.04-.923-.38-.625-.274-1.69-.118-1.846.38 1.2 1.75 1.445 2.606 1.423z" fill="#463014"/><path d="M90.59 14.04c-.242.716-.74 1.293-.74 1.293s.684-.03.723-.152c.027-.088.616-1.468.842-3.084-.213.35-.805 1.883-.824 1.945z" fill="#463014"/><path d="M94.463 12.395s.775 1.186 1.344 2.027c.088.13-.568.138-.568.138l-.777-2.165zM94.094 9.938s.234.583.362.892c.138.335.67.503.67.503s-.276-.288-.276-1.018c0-.306-.396-.428-.396-.428l-.36.05z" fill="#e78724"/><path d="M94.33 10.267s.48.57 1.368.25c.89-.32.98-1.458.98-1.777 0-.32-1.688.32-1.916.456-.227.137-.66.683-.432 1.07zM97.688 4.178s-.82-.16-1.37.273c-.546.435-.704.776-.704.776l.922.73s.446-.206.582-.798c.136-.593.046-.866.57-.98z" fill="#e78724"/><path d="M94.57 8.62c.353-.5.935-.72 1.4-.755.792-.062 1.168.218 1.168.218s-1.3.055-1.672.546c-.697.914-1.713.988-1.875.787.19.01.396-.083.616-.292.14-.13.25-.345.363-.504zM96.76 10.395s1.44-.496 1.167-.997c-.273-.5-.056-.775-.056-.775s.806.6.6 1.24c-.126.39-.336.674-1.497 1.218-.557 1.034-.116 2.895-.142 2.904-.043.015-.78-.365-.73-2.106.017-.533.06-1.263.66-1.483zM94.874 5.07c.604.306 1.43.734 1.43.734l-.324.163c.03.05.046.08.046.08l-.335.153s-.815.59-1.315.97c.167-.513.655-1.32.655-1.32s.14-.37-.156-.78zM92.868 17.577c1.855 0 2.484-.942 2.484-.942l-.29.706c-.11.307-1.28 1.257-2.192 1.257" fill="#e78724"/><path d="M95.148 15.997s-.17 1.045-.854 1.045c-.58 0-.752-.883-.752-1.064l1.606.02zM96.286 14.424a7.678 7.678 0 0 1-.34-1.46c-.083-.736-.054-1.814-.054-1.814s.183.707.343.82c.158.114.456.89.456.89s.158 1.154.235 1.54c-.21.043-.385-.082-.64.024zM97.938 9.85s-.388-.137-.502-.98c-.113-.843.137-1.572.137-1.572s-.022 1.163.115 1.39c.137.23.25.296.41.593.16.297-.07.48-.16.57z" fill="#e78724"/><path d="M97.475 4.378l.08-.05c.232.007-.08.05-.08.05z" fill="#fdc168"/><path d="M94.558 4.82s.364-.06.548-.333c.182-.274.697-.82 1.52-.828a6.86 6.86 0 0 1 1.64.218l-.71.45c-.076-.003-.21-.002-.427.005-.893.03-1.03.913-1.03.913l-3.145-.434" fill="#fba919"/><path d="M94.255 9.696s.425.426 1.078.29c.654-.137 1.05-.426 1.08-.927.03-.502-.14-.7-.14-.7s-.728.228-1.077.532c-.35.303-.608.79-.94.804z" fill="#FFF"/><path d="M94.77 9.544s.366.168.78.032c.54-.18.576-.742.576-.742s.33.972-.598 1.16c-.745.15-1.185-.282-1.185-.282l.426-.168z" fill="#c9c9c9"/><path d="M97.182 5.884c.3-.25.075-.48.1-.766.013-.15.024-.294.075-.372.275-.437.93-.57.938-.57l.307-.062-.204-.237c-.026-.03-.86-.826-2.15-.41-.903.292-1.57 1.28-1.596 1.32l.452.21c.007-.008.534-.936 1.31-1.185a1.982 1.982 0 0 1 1.45.116c-.265.105-.607.296-.815.623-.098.155-.113.35-.13.537-.02.25-.04.484-.225.637l.487.16zM97.985 9.53s-.38-.47-.49-1.385c-.045-.36.033-1.072.158-1.346-.022.672.148 1.345.148 1.345s.117 1.25.185 1.385z" fill="#463014"/><path d="M95.986 5.41c0-.002.12-.533.458-.802.476-.377 1.056-.177 1.06-.174l.085-.26c-.028-.01-.692-.22-1.304.21-.613.433-.687.825-.694.868l.394.157zM96.795 9.193s.2-.285.162-.6c-.017-.154-.09-.312-.217-.37-.238-.103-.343.166-.343.166s.334.082.398.803z" fill="#463014"/><path d="M94.61 9.626l-.014.025s.62.466 1.257-.006c.34-.252.31-.88.204-1.145-.27.06-.5.172-.693.3.242-.216.455-.376.455-.38l.275-.078.536-.184c.008.04.204.96-.36 1.583-.252.28-1.426.9-1.983-.162l.322.048z" fill="#463014"/><path d="M94.667 9.695c-.35.532-1.23.228-1.216-.334 0 0 .59.327 1.11-.272.305-.35 1.28-1.312 2.6-.993-.912.2-2.12 1.032-2.493 1.6z" fill="#463014"/><path d="M97.283 11.196c-.085.048-.38.355-.38.813-.002.23.022 1.387.135 2.093-.17.112-.29.136-.46.25-.086-.82-.146-2.005-.12-2.484.034-.547.327-.913.597-1.07.085-.048.174-.096.263-.144.465-.25.945-.51.945-.954 0-.347-.135-.455-.278-.57l-.016-.012c-.095-.077-.203-.164-.267-.306-.172-.39-.2-1.382 0-1.633.1-.124.37-.546.293-.83a.378.378 0 0 0-.21-.245 1.025 1.025 0 0 0-.47-.09c-.383 0-.81.115-1.03.186-.783.25-1.728.966-2 1.18l-.013.01-.173.12.108-.182c.007-.012.693-1.14 1.923-1.556.24-.08.71-.216 1.172-.216.274 0 .507.048.692.143.226.115.377.298.44.53.156.57-.35 1.204-.367 1.225-.06.105-.084.87.053 1.175a.46.46 0 0 0 .135.136c.02.017.044.034.068.053.19.144.48.363.48.868 0 .69-.7 1.065-1.26 1.367-.092.048-.18.095-.26.14z" fill="#463014"/><path d="M96.447 5.803c-.11-.188-.396-.553-1.053-.873-.732-.357-1.58-.54-2.52-.54h-.004c-.94 0-1.788.183-2.52.54-.657.32-.942.685-1.055.873l-.045.063.562.125.018-.022.01-.02c.01-.038.083-.238.71-.544.67-.327 1.453-.492 2.323-.493.87 0 1.653.167 2.322.494.628.306.702.506.712.544l.01.02.017.023.562-.124-.05-.063z" fill="#463014"/><path d="M97.182 5.884c.3-.25.075-.48.1-.766.013-.15.024-.294.075-.372.275-.437.93-.57.938-.57l.307-.062-.204-.237c-.026-.03-.86-.826-2.15-.41-.903.292-1.57 1.28-1.596 1.32l.452.21c.007-.008.534-.936 1.31-1.185a1.982 1.982 0 0 1 1.45.116c-.265.105-.607.296-.815.623-.098.155-.113.35-.13.537-.02.25-.04.484-.225.637l.487.16z" fill="#463014"/><path d="M96.6 5.742l.065-.053c.167-.14.188-.367.207-.607.017-.193.033-.393.137-.556.188-.3.49-.488.74-.6a2.008 2.008 0 0 0-.773-.157c-.19 0-.376.03-.552.086-.72.23-1.226 1.07-1.283 1.167l-.02.035-.538-.252.028-.043c.005-.01.678-1.034 1.62-1.337a2.42 2.42 0 0 1 .753-.123c.905 0 1.44.542 1.445.547l.255.296-.382.074c-.007 0-.645.134-.908.55-.043.07-.055.207-.068.352-.007.087.012.17.03.252.037.176.076.36-.147.544l-.017.016-.592-.192z" fill="#463014"/><path d="M95.986 5.41c0-.002.12-.533.458-.802.476-.377 1.056-.177 1.06-.174l.085-.26c-.028-.01-.692-.22-1.304.21-.613.433-.687.825-.694.868l.394.157z" fill="#463014"/><path d="M95.542 5.28l.005-.035c.007-.045.084-.455.714-.897.26-.183.57-.28.9-.28.247 0 .424.057.443.063l.043.015-.112.347-.044-.015c-.016-.005-.163-.053-.36-.053-.252 0-.474.075-.657.22-.32.256-.44.77-.442.775l-.01.05-.478-.19zm1.933-.902l.057-.173a1.527 1.527 0 0 0-.372-.045c-.315 0-.6.088-.847.262-.518.364-.64.692-.668.802l.31.124c.04-.145.175-.547.46-.774.198-.156.444-.24.715-.24.156 0 .28.026.345.044zM93.978 16.652a2.304 2.304 0 0 1-.407-.604c-.018-.05-.04-.138.028-.208.055-.057.146-.083.276-.083h.92c.17 0 .256.048.296.09.06.06.067.143.028.246-.11.277-.357.504-.43.567a.578.578 0 0 1-.365.13c-.14 0-.26-.05-.345-.138zM94.182 9.726l.484-.03s-.123.218-.204.5c-.09.322.084.79.084.79s-.648-.734-.364-1.26z" fill="#463014"/><path d="M92.872 7.99c-.31 0-.714-.008-1.017-.226 0 0 .396.696 1.016.696l.002-.088v.088c.62 0 1.018-.696 1.018-.696-.303.218-.71.226-1.018.226z" fill="#e78724"/><path d="M93.726 7.987c-.312.188-.59.253-.854.26a1.667 1.667 0 0 1-.853-.26s.45.552.85.557h.004c.398-.005.852-.557.852-.557zM94.79 18.075l-.036-.45c1.46-.112 1.92-1.512 1.92-1.66h.454c0 .342-.61 1.977-2.34 2.11z" fill="#463014"/><path d="M95.275 15.145c.027-.155.03-.305-.003-.45.13-.098.367-.135.545-.193.145-.09.886.095 1.423-.556.674-.816.53-1.302.53-1.302.175.192.342.118.604 1.014.266.895-.123 1.52-.845 2.146-.342.296-.824.418-1.24.465.14-.14-.234-.154-.496-.252.02-.21-.014-.413-.17-.576a.887.887 0 0 0-.34-.205l-.02-.046c.004-.015.008-.03.01-.045z" fill="#FFF"/><path d="M95.8 16.01c.014-.044.024-.087.036-.133.013-.05.07-.188-.002-.03.02-.04.03-.082.04-.123 1.17-.002 2.188-.806 1.99-2.493.153-.203.367.41.367.41s.586 1.7-.926 2.36c-.503.22-.948.376-1.054.312-.218.044-.416-.108-.49-.208a.93.93 0 0 0 .04-.093z" fill="#c9c9c9"/><path d="M95.296 14.9a.92.92 0 0 0-.1-.42l-.016-.026c.45-.004.97-.046 1.41-.223.484-.193 1.09-.857 1.195-1.638 0 0 .914.706.646 2.214-.252 1.417-1.436 1.88-2.79 1.956 0-.008.153-.324.105-.517.768.056 1.627-.24 2.04-.923.38-.625.273-1.69.118-1.846-.38 1.2-1.75 1.445-2.607 1.423z" fill="#463014"/><g><path d="M95.842 15.255c-.16-.175-.46-.382-1.143-.382 0 0-1.3 0-1.826-.002h-.004c-.526.002-1.825.003-1.825.003-.683 0-.98.207-1.142.382-.236.255-.273.608-.11 1.05.434 1.177 1.04 2.372 3.077 2.374h.004c2.036-.003 2.644-1.198 3.077-2.375.164-.442.126-.795-.108-1.05zm-.318.968c-.206.59-.76 2.02-2.652 2.022-1.892-.002-2.447-1.432-2.65-2.022-.116-.328-.107-.57.024-.72.09-.105.297-.228.77-.228h3.713c.473 0 .68.123.77.227.132.15.14.393.026.72z" fill="#463014"/></g><path d="M95.154 14.04c.244.716.74 1.293.74 1.293s-.683-.03-.722-.152c-.027-.088-.616-1.468-.843-3.084.214.35.803 1.883.824 1.945z" fill="#463014"/></g></svg>