<?xml version="1.0" encoding="utf-8"?>
<!-- Generator: Adobe Illustrator 16.0.0, SVG Export Plug-In . SVG Version: 6.00 Build 0)  -->
<!DOCTYPE svg PUBLIC "-//W3C//DTD SVG 1.1//EN" "http://www.w3.org/Graphics/SVG/1.1/DTD/svg11.dtd">
<svg version="1.1" id="Layer_1" xmlns="http://www.w3.org/2000/svg" xmlns:xlink="http://www.w3.org/1999/xlink" x="0px" y="0px"
	 width="207.777px" height="20px" viewBox="0 0 207.777 20" style="enable-background:new 0 0 207.777 20;" xml:space="preserve">
<path style="fill:#FFFFFF;" d="M2.223,19.445c-0.92,0-1.667-0.75-1.667-1.668V2.223c0-0.92,0.747-1.667,1.667-1.667h203.332
	c0.919,0,1.668,0.747,1.668,1.667v15.554c0,0.92-0.749,1.668-1.668,1.668H2.223L2.223,19.445z"/>
<linearGradient id="SVGID_1_" gradientUnits="userSpaceOnUse" x1="125.4451" y1="-64.9995" x2="125.4451" y2="-45" gradientTransform="matrix(1 0 0 -1 -76 -45)">
	<stop  offset="0" style="stop-color:#3E6284"/>
	<stop  offset="1" style="stop-color:#5283B0"/>
</linearGradient>
<path style="fill:url(#SVGID_1_);" d="M98.889,20H2c-1.1,0-2-0.9-2-2V2c0-1.1,0.9-2,2-2h96.89V20z"/>
<rect x="97.777" style="fill:#3E6284;" width="1.111" height="20"/>
<path style="fill:#3E6284;" d="M205.555,1.111c0.613,0,1.11,0.499,1.11,1.111v15.555c0,0.613-0.497,1.111-1.11,1.111H2.223
	c-0.612,0-1.111-0.498-1.111-1.111V2.223c0-0.612,0.499-1.111,1.111-1.111L205.555,1.111 M205.555,0H2.223C1,0,0,1,0,2.223v15.554
	C0,19,1,20,2.223,20h203.332c1.223,0,2.223-1,2.223-2.223V2.223C207.777,1,206.777,0,205.555,0L205.555,0z"/>
<g>
	<path style="fill:#5283B0;" d="M124.283,5.945c0.73,0,1.564,0.091,2.168,0.536c0.688,0.504,1.008,1.28,1.008,2.125
		c0,0.72-0.273,1.416-0.79,1.919c-0.593,0.605-1.256,0.752-2.077,0.752h-1.117v1.521h0.89V14.1h-3.322v-1.303h0.877v-5.55h-0.877
		V5.945H124.283z M124.397,9.875c0.39,0,0.742-0.014,1.052-0.276c0.296-0.25,0.445-0.616,0.445-0.993c0-0.4-0.194-0.775-0.517-0.995
		c-0.329-0.239-0.672-0.25-1.049-0.25h-0.855v2.514H124.397z"/>
	<path style="fill:#5283B0;" d="M130.223,12.797h0.79V14.1h-2.981v-1.303h0.8V9.303h-0.788V8h2.181L130.223,12.797L130.223,12.797z
		 M130.223,7.419h-1.393V5.945h1.393V7.419z"/>
	<path style="fill:#5283B0;" d="M135.203,14.1h-1.46l-1.874-4.797h-0.742V8h2.845v1.303h-0.617l1.119,3.084h0.012l1.199-3.084h-0.65
		V8h2.812v1.303h-0.721L135.203,14.1z"/>
	<path style="fill:#5283B0;" d="M146.753,12.797h1.105V14.1h-2.5V9.303h-0.96V8h0.96V5.945h1.395V8h1.038v1.303h-1.038V12.797z"/>
	<path style="fill:#5283B0;" d="M153.346,13.277c-0.443,0.674-1.165,0.981-1.967,0.981c-1.747,0-3.131-1.45-3.131-3.174
		c0-1.772,1.418-3.245,3.198-3.245c0.787,0,1.476,0.364,1.898,1.027V8h2.182v1.303h-0.767v3.494h0.767V14.1h-2.182L153.346,13.277
		L153.346,13.277z M153.365,11.016c0-1.003-0.832-1.814-1.838-1.814c-1.039,0-1.838,0.856-1.838,1.886
		c0,0.992,0.834,1.812,1.815,1.812C152.558,12.898,153.365,12.055,153.365,11.016z"/>
	<path style="fill:#5283B0;" d="M158.555,12.797h0.786V14.1h-3.026v-1.303h0.848v-5.55h-0.789V5.945h2.183L158.555,12.797
		L158.555,12.797z"/>
	<path style="fill:#EC7D1A;" d="M163.554,12.797h0.894V14.1h-3.335v-1.303h0.891v-5.47h-1.199v1.188h-1.232v-2.57h6.42v2.57h-1.236
		V7.327h-1.198L163.554,12.797L163.554,12.797z"/>
	<path style="fill:#EC7D1A;" d="M168.661,9.04c0.354-0.72,1.04-1.073,1.829-1.108v1.427c-0.446,0.024-0.857,0.139-1.199,0.446
		c-0.457,0.388-0.524,0.878-0.524,1.45v1.541h0.787V14.1h-2.972v-1.303h0.788V9.303h-0.788V8h2.079V9.04z"/>
	<path style="fill:#EC7D1A;" d="M175.872,13.277c-0.445,0.674-1.165,0.981-1.966,0.981c-1.75,0-3.128-1.45-3.128-3.174
		c0-1.772,1.413-3.245,3.198-3.245c0.787,0,1.473,0.364,1.896,1.027V8h2.181v1.303h-0.764v3.494h0.764V14.1h-2.181V13.277
		L175.872,13.277z M175.895,11.016c0-1.003-0.834-1.814-1.838-1.814c-1.038,0-1.838,0.856-1.838,1.886
		c0,0.992,0.832,1.812,1.814,1.812C175.083,12.898,175.895,12.055,175.895,11.016z"/>
	<path style="fill:#EC7D1A;" d="M184.688,12.045c-0.377,1.289-1.69,2.215-3.027,2.215c-1.771,0-3.221-1.428-3.221-3.209
		c0-1.692,1.338-3.234,3.07-3.234c0.686,0,1.29,0.276,1.75,0.765V8h1.198v2.034h-1.302c-0.171-0.25-0.401-0.456-0.652-0.606
		c-0.261-0.146-0.559-0.227-0.865-0.227c-1.039,0-1.808,0.833-1.808,1.85c0,1.04,0.821,1.838,1.84,1.838
		c0.594,0,1.198-0.308,1.459-0.844H184.688z"/>
	<path style="fill:#EC7D1A;" d="M197.672,12.307c-0.479,1.166-1.609,1.953-2.879,1.953c-1.78,0-3.21-1.393-3.21-3.188
		c0-1.804,1.36-3.254,3.177-3.254c0.846,0,1.689,0.376,2.285,0.982c0.604,0.64,0.857,1.415,0.857,2.285l-0.049,0.49h-4.933
		c0.183,0.846,0.959,1.463,1.828,1.463c0.605,0,1.131-0.229,1.476-0.731H197.672L197.672,12.307z M196.612,10.502
		c-0.243-0.88-1.02-1.438-1.921-1.438c-0.822,0-1.609,0.64-1.782,1.438H196.612z"/>
	<path style="fill:#EC7D1A;" d="M200.395,9.04c0.354-0.72,1.039-1.073,1.828-1.108v1.427c-0.445,0.024-0.857,0.139-1.199,0.446
		c-0.455,0.388-0.526,0.878-0.526,1.45v1.541h0.789V14.1h-2.97v-1.303h0.787V9.303h-0.787V8h2.078V9.04L200.395,9.04z"/>
	<g>
		<g>
			<path style="fill:#EC7D1A;" d="M110.606,6.038l1.634,2.829c0.259-0.069,0.541-0.049,0.801,0.071l0.857-1.487l-1.438-2.485
				l-1.874,1.082l0,0L110.606,6.038z"/>
			<path style="fill:#EC7D1A;" d="M108.145,9.698h3.266c0.027-0.097,0.063-0.193,0.116-0.286c0.09-0.154,0.21-0.278,0.347-0.375
				l-0.858-1.486h-2.871v2.164h0.003L108.145,9.698L108.145,9.698z"/>
			<path style="fill:#EC7D1A;" d="M113.559,10.586c-0.088,0.154-0.207,0.279-0.345,0.375l0.86,1.486h2.87v-2.145h-3.271
				C113.649,10.398,113.612,10.494,113.559,10.586z"/>
			<path style="fill:#EC7D1A;" d="M113.371,9.171c0.199,0.197,0.316,0.457,0.34,0.729h1.72l1.433-2.486l-1.857-1.072L113.371,9.171z
				"/>
			<path style="fill:#EC7D1A;" d="M110.08,13.66l1.635-2.834c-0.195-0.195-0.314-0.455-0.34-0.725h-1.719l-1.436,2.484l1.874,1.082
				l0,0L110.08,13.66z"/>
			<path style="fill:#EC7D1A;" d="M114.479,13.963l-1.632-2.83c-0.259,0.067-0.542,0.051-0.802-0.072l-0.858,1.49l1.434,2.484
				l1.876-1.084l0,0L114.479,13.963z"/>
		</g>
	</g>
	<path style="fill:#5283B0;" d="M112.543,4.167c3.224,0,5.835,2.611,5.835,5.833c0,3.223-2.611,5.836-5.835,5.836
		c-3.221,0-5.835-2.613-5.835-5.836C106.708,6.778,109.322,4.167,112.543,4.167 M112.543,2.685c-4.033,0-7.314,3.282-7.314,7.315
		c0,4.035,3.281,7.316,7.314,7.316c4.036,0,7.318-3.281,7.318-7.316C119.861,5.967,116.579,2.685,112.543,2.685L112.543,2.685z"/>
	<path style="fill:#5283B0;" d="M141.1,9.199c1.016,0,1.842,0.827,1.842,1.842c0,1.021-0.826,1.848-1.842,1.848
		c-1.02,0-1.846-0.826-1.846-1.848C139.255,10.025,140.081,9.199,141.1,9.199 M141.1,7.83c-1.777,0-3.216,1.438-3.216,3.211
		c0,1.777,1.438,3.218,3.216,3.218c1.773,0,3.212-1.438,3.212-3.218C144.312,9.269,142.874,7.83,141.1,7.83L141.1,7.83z"/>
	<polygon style="fill:#EC7D1A;" points="190.541,12.797 188.761,10.924 190.441,9.303 191.18,9.303 191.18,8 188.178,8 
		188.178,9.166 188.806,9.166 187.242,10.73 187.242,5.945 185.047,5.945 185.047,7.247 185.846,7.247 185.846,12.797 
		185.047,12.797 185.047,14.1 187.242,14.1 187.242,11.197 188.689,12.797 188.178,12.797 188.178,14.1 191.502,14.1 
		191.502,12.797 	"/>
</g>
<g>
	<g style="enable-background:new    ;">
		<path d="M9.272,15.555H7.456V8.5H5.13V6.988h6.469V8.5H9.272V15.555z"/>
		<path d="M14.733,12.268v3.287h-1.816V6.988h2.496c1.164,0,2.025,0.212,2.584,0.636s0.838,1.067,0.838,1.931
			c0,0.504-0.139,0.952-0.416,1.345s-0.67,0.7-1.178,0.923c1.289,1.926,2.129,3.17,2.52,3.732h-2.016L15.7,12.268H14.733z
			 M14.733,10.791h0.586c0.574,0,0.998-0.096,1.271-0.287s0.41-0.492,0.41-0.902c0-0.406-0.14-0.695-0.419-0.867
			s-0.712-0.258-1.298-0.258h-0.551V10.791z"/>
		<path d="M26.083,15.555l-0.621-2.039h-3.123l-0.621,2.039H19.76l3.023-8.602h2.221l3.035,8.602H26.083z M25.028,11.992
			c-0.574-1.848-0.897-2.893-0.97-3.135s-0.124-0.434-0.155-0.574c-0.129,0.5-0.498,1.736-1.107,3.709H25.028z"/>
		<path d="M32.757,8.377c-0.684,0-1.213,0.257-1.588,0.771s-0.562,1.229-0.562,2.147c0,1.91,0.717,2.865,2.15,2.865
			c0.602,0,1.33-0.15,2.186-0.451v1.523c-0.703,0.293-1.488,0.439-2.355,0.439c-1.246,0-2.199-0.378-2.859-1.134
			s-0.99-1.841-0.99-3.255c0-0.891,0.162-1.671,0.486-2.341s0.79-1.184,1.397-1.541s1.319-0.536,2.136-0.536
			c0.832,0,1.668,0.201,2.508,0.604l-0.586,1.477c-0.32-0.152-0.643-0.285-0.967-0.398S33.069,8.377,32.757,8.377z"/>
		<path d="M43.655,15.555h-2.062l-2.244-3.609l-0.768,0.551v3.059h-1.816V6.988h1.816v3.92L39.296,9.9l2.32-2.912h2.016
			l-2.988,3.791L43.655,15.555z"/>
		<path d="M49.667,15.555h-4.934V6.988h4.934v1.488H46.55v1.881h2.9v1.488h-2.9v2.209h3.117V15.555z"/>
		<path d="M58.561,11.189c0,1.41-0.401,2.49-1.204,3.24s-1.962,1.125-3.478,1.125h-2.426V6.988h2.689
			c1.398,0,2.484,0.369,3.258,1.107S58.561,9.865,58.561,11.189z M56.675,11.236c0-1.84-0.812-2.76-2.438-2.76H53.27v5.578h0.779
			C55.8,14.055,56.675,13.115,56.675,11.236z"/>
		<path d="M71.798,15.555h-2.068l-1.16-4.5c-0.043-0.16-0.116-0.491-0.22-0.993s-0.163-0.839-0.179-1.011
			c-0.023,0.211-0.082,0.55-0.176,1.017s-0.166,0.8-0.217,0.999l-1.154,4.488h-2.062l-2.186-8.566h1.787l1.096,4.676
			c0.191,0.863,0.33,1.611,0.416,2.244c0.023-0.223,0.077-0.567,0.161-1.034s0.163-0.829,0.237-1.087l1.248-4.799h1.717l1.248,4.799
			c0.055,0.215,0.123,0.543,0.205,0.984s0.145,0.82,0.188,1.137c0.039-0.305,0.102-0.685,0.188-1.14s0.164-0.823,0.234-1.104
			l1.09-4.676h1.787L71.798,15.555z"/>
		<path d="M75.055,15.555V6.988h1.816v8.566H75.055z"/>
		<path d="M82.333,15.555h-1.816V8.5H78.19V6.988h6.469V8.5h-2.326V15.555z"/>
		<path d="M92.997,15.555h-1.811v-3.697h-3.393v3.697h-1.816V6.988h1.816v3.357h3.393V6.988h1.811V15.555z"/>
	</g>
	<g style="enable-background:new    ;">
		<path style="fill:#FFFFFF;" d="M9.272,14.444H7.456V7.39H5.13V5.878h6.469V7.39H9.272V14.444z"/>
		<path style="fill:#FFFFFF;" d="M14.733,11.157v3.287h-1.816V5.878h2.496c1.164,0,2.025,0.212,2.584,0.636s0.838,1.067,0.838,1.931
			c0,0.504-0.139,0.952-0.416,1.345s-0.67,0.7-1.178,0.923c1.289,1.926,2.129,3.17,2.52,3.732h-2.016L15.7,11.157H14.733z
			 M14.733,9.681h0.586c0.574,0,0.998-0.096,1.271-0.287s0.41-0.492,0.41-0.902c0-0.406-0.14-0.695-0.419-0.867
			s-0.712-0.258-1.298-0.258h-0.551V9.681z"/>
		<path style="fill:#FFFFFF;" d="M26.083,14.444l-0.621-2.039h-3.123l-0.621,2.039H19.76l3.023-8.602h2.221l3.035,8.602H26.083z
			 M25.028,10.882c-0.574-1.848-0.897-2.893-0.97-3.135s-0.124-0.434-0.155-0.574c-0.129,0.5-0.498,1.736-1.107,3.709H25.028z"/>
		<path style="fill:#FFFFFF;" d="M32.757,7.267c-0.684,0-1.213,0.257-1.588,0.771s-0.562,1.229-0.562,2.147
			c0,1.91,0.717,2.865,2.15,2.865c0.602,0,1.33-0.15,2.186-0.451v1.523c-0.703,0.293-1.488,0.439-2.355,0.439
			c-1.246,0-2.199-0.378-2.859-1.134s-0.99-1.841-0.99-3.255c0-0.891,0.162-1.671,0.486-2.341s0.79-1.184,1.397-1.541
			s1.319-0.536,2.136-0.536c0.832,0,1.668,0.201,2.508,0.604l-0.586,1.477c-0.32-0.152-0.643-0.285-0.967-0.398
			S33.069,7.267,32.757,7.267z"/>
		<path style="fill:#FFFFFF;" d="M43.655,14.444h-2.062l-2.244-3.609l-0.768,0.551v3.059h-1.816V5.878h1.816v3.92l0.715-1.008
			l2.32-2.912h2.016l-2.988,3.791L43.655,14.444z"/>
		<path style="fill:#FFFFFF;" d="M49.667,14.444h-4.934V5.878h4.934v1.488H46.55v1.881h2.9v1.488h-2.9v2.209h3.117V14.444z"/>
		<path style="fill:#FFFFFF;" d="M58.561,10.079c0,1.41-0.401,2.49-1.204,3.24s-1.962,1.125-3.478,1.125h-2.426V5.878h2.689
			c1.398,0,2.484,0.369,3.258,1.107S58.561,8.755,58.561,10.079z M56.675,10.126c0-1.84-0.812-2.76-2.438-2.76H53.27v5.578h0.779
			C55.8,12.944,56.675,12.005,56.675,10.126z"/>
		<path style="fill:#FFFFFF;" d="M71.798,14.444h-2.068l-1.16-4.5c-0.043-0.16-0.116-0.491-0.22-0.993s-0.163-0.839-0.179-1.011
			c-0.023,0.211-0.082,0.55-0.176,1.017s-0.166,0.8-0.217,0.999l-1.154,4.488h-2.062l-2.186-8.566h1.787l1.096,4.676
			c0.191,0.863,0.33,1.611,0.416,2.244c0.023-0.223,0.077-0.567,0.161-1.034s0.163-0.829,0.237-1.087l1.248-4.799h1.717l1.248,4.799
			c0.055,0.215,0.123,0.543,0.205,0.984s0.145,0.82,0.188,1.137c0.039-0.305,0.102-0.685,0.188-1.14s0.164-0.823,0.234-1.104
			l1.09-4.676h1.787L71.798,14.444z"/>
		<path style="fill:#FFFFFF;" d="M75.055,14.444V5.878h1.816v8.566H75.055z"/>
		<path style="fill:#FFFFFF;" d="M82.333,14.444h-1.816V7.39H78.19V5.878h6.469V7.39h-2.326V14.444z"/>
		<path style="fill:#FFFFFF;" d="M92.997,14.444h-1.811v-3.697h-3.393v3.697h-1.816V5.878h1.816v3.357h3.393V5.878h1.811V14.444z"/>
	</g>
</g>
</svg>
