<svg xmlns="http://www.w3.org/2000/svg" width="207.777" height="20" viewBox="0 0 207.777 20"><path d="M2.223 19.445a1.67 1.67 0 0 1-1.667-1.668V2.223c0-.92.747-1.667 1.667-1.667h203.332c.92 0 1.668.747 1.668 1.667v15.554c0 .92-.75 1.668-1.668 1.668H2.223z" fill="#FFF"/><linearGradient id="a" gradientUnits="userSpaceOnUse" x1="125.445" y1="-64.999" x2="125.445" y2="-45" gradientTransform="matrix(1 0 0 -1 -76 -45)"><stop offset="0" stop-color="#3e6284"/><stop offset="1" stop-color="#5283b0"/></linearGradient><path d="M98.89 20H2c-1.1 0-2-.9-2-2V2C0 .9.9 0 2 0h96.89v20z" fill="url(#a)"/><path fill="#3e6284" d="M97.777 0h1.11v20h-1.11z"/><path d="M205.555 1.11c.613 0 1.11.5 1.11 1.112v15.555a1.11 1.11 0 0 1-1.11 1.11H2.223c-.612 0-1.11-.497-1.11-1.11V2.223c0-.612.498-1.11 1.11-1.11l203.332-.002m0-1.11H2.223A2.23 2.23 0 0 0 0 2.223v15.554C0 19 1 20 2.223 20h203.332c1.223 0 2.223-1 2.223-2.223V2.223c0-1.223-1-2.223-2.223-2.223z" fill="#3e6284"/><path d="M124.283 5.945c.73 0 1.564.09 2.168.536.69.505 1.01 1.28 1.01 2.126 0 .72-.274 1.416-.79 1.92-.594.604-1.257.75-2.078.75h-1.117V12.8h.89V14.1h-3.322v-1.303h.877v-5.55h-.877V5.945h3.24zm.114 3.93c.39 0 .742-.014 1.052-.276.295-.25.444-.617.444-.994 0-.4-.194-.775-.517-.995-.33-.238-.672-.25-1.05-.25h-.854v2.515h.924zM130.223 12.797h.79V14.1h-2.98v-1.303h.8V9.303h-.79V8h2.182l-.002 4.797zm0-5.378h-1.393V5.944h1.393V7.42zM135.203 14.1h-1.46l-1.874-4.797h-.743V8h2.845v1.303h-.617l1.12 3.084h.01l1.2-3.084h-.65V8h2.812v1.303h-.72l-1.924 4.797zM146.753 12.797h1.105V14.1h-2.5V9.303h-.96V8h.96V5.945h1.395V8h1.038v1.303h-1.037v3.494zM153.346 13.277c-.443.674-1.165.98-1.967.98-1.748 0-3.132-1.45-3.132-3.173 0-1.772 1.418-3.245 3.198-3.245.787 0 1.476.363 1.898 1.026V8h2.182v1.303h-.767v3.494h.766V14.1h-2.182l.002-.823zm.02-2.26c0-1.004-.833-1.815-1.84-1.815-1.038 0-1.837.856-1.837 1.886 0 .992.833 1.812 1.814 1.812 1.054-.002 1.86-.845 1.86-1.884zM158.555 12.797h.786V14.1h-3.025v-1.303h.848v-5.55h-.79V5.945h2.184l-.002 6.852z" fill="#5283b0"/><path d="M163.554 12.797h.894V14.1h-3.335v-1.303h.89v-5.47h-1.198v1.188h-1.232v-2.57h6.42v2.57h-1.236V7.327h-1.198l-.006 5.47zM168.66 9.04c.355-.72 1.04-1.073 1.83-1.108V9.36c-.446.023-.857.138-1.2.445-.456.388-.523.878-.523 1.45v1.54h.787V14.1h-2.972v-1.303h.788V9.303h-.788V8h2.08v1.04zM175.872 13.277c-.445.674-1.165.98-1.966.98-1.75 0-3.128-1.45-3.128-3.173 0-1.772 1.413-3.245 3.198-3.245.787 0 1.473.363 1.896 1.026V8h2.18v1.303h-.763v3.494h.763V14.1h-2.18v-.823zm.023-2.26c0-1.004-.834-1.815-1.838-1.815-1.038 0-1.838.856-1.838 1.886 0 .992.83 1.812 1.813 1.812 1.05-.002 1.862-.845 1.862-1.884zM184.688 12.045c-.377 1.29-1.69 2.215-3.027 2.215a3.214 3.214 0 0 1-3.22-3.21c0-1.69 1.338-3.233 3.07-3.233.686 0 1.29.276 1.75.765V8h1.198v2.034h-1.302c-.17-.25-.4-.456-.652-.606a1.775 1.775 0 0 0-.865-.227c-1.04 0-1.81.834-1.81 1.85 0 1.04.822 1.84 1.84 1.84.595 0 1.2-.31 1.46-.845h1.558zM197.672 12.307c-.48 1.166-1.61 1.953-2.88 1.953-1.78 0-3.21-1.393-3.21-3.188 0-1.804 1.36-3.254 3.178-3.254.846 0 1.69.376 2.285.982.604.64.857 1.415.857 2.285l-.05.49h-4.932c.183.846.96 1.463 1.828 1.463.605 0 1.13-.23 1.476-.73h1.448zm-1.06-1.805c-.243-.88-1.02-1.438-1.92-1.438-.823 0-1.61.64-1.783 1.438h3.702zM200.395 9.04c.354-.72 1.04-1.073 1.828-1.108V9.36c-.445.023-.857.138-1.2.445-.454.388-.525.878-.525 1.45v1.54h.79V14.1h-2.97v-1.303h.786V9.303h-.787V8h2.078v1.04z" fill="#ec7d1a"/><g fill="#ec7d1a"><path d="M110.606 6.038l1.634 2.83c.26-.07.54-.05.8.07l.858-1.487-1.438-2.484-1.874 1.082.02-.01zM108.145 9.698h3.266c.028-.097.064-.193.117-.286.09-.154.21-.278.347-.375l-.858-1.486h-2.87v2.165h.002l-.003-.017zM113.56 10.586c-.09.154-.208.28-.346.375l.86 1.487h2.87v-2.145h-3.27c-.025.096-.062.192-.115.284zM113.37 9.17c.2.198.317.458.34.73h1.72l1.434-2.486-1.857-1.072-1.636 2.83zM110.08 13.66l1.635-2.834a1.19 1.19 0 0 1-.34-.725h-1.72l-1.435 2.485 1.874 1.082-.014-.007zM114.48 13.963l-1.633-2.83c-.26.067-.542.05-.802-.072l-.858 1.49 1.434 2.485 1.877-1.084-.018.013z"/></g><path d="M112.543 4.167a5.835 5.835 0 1 1 0 11.67 5.835 5.835 0 0 1 0-11.67m0-1.482c-4.033 0-7.314 3.282-7.314 7.315 0 4.035 3.28 7.316 7.313 7.316 4.036 0 7.318-3.28 7.318-7.316 0-4.033-3.28-7.315-7.317-7.315zM141.1 9.2a1.844 1.844 0 1 1-.005 3.688 1.844 1.844 0 0 1 .005-3.69m0-1.368a3.213 3.213 0 0 0-3.216 3.21 3.214 3.214 0 0 0 6.428 0 3.212 3.212 0 0 0-3.212-3.21z" fill="#5283b0"/><path fill="#ec7d1a" d="M190.54 12.797l-1.78-1.873 1.68-1.62h.74V8h-3.002v1.166h.628l-1.564 1.564V5.945h-2.195v1.302h.8v5.55h-.8V14.1h2.195v-2.903l1.447 1.6h-.512V14.1h3.324v-1.303z"/><g><path d="M9.272 15.555H7.456V8.5H5.13V6.988h6.47V8.5H9.27v7.055zM14.733 12.268v3.287h-1.816V6.988h2.496c1.164 0 2.025.212 2.584.636s.838 1.067.838 1.93c0 .505-.14.953-.416 1.346s-.67.7-1.18.923c1.29 1.926 2.13 3.17 2.52 3.732h-2.015L15.7 12.268h-.967zm0-1.477h.586c.573 0 .997-.095 1.27-.286s.41-.492.41-.902c0-.406-.14-.695-.42-.867s-.71-.258-1.297-.258h-.55v2.314zM26.083 15.555l-.62-2.04h-3.124l-.622 2.04H19.76l3.023-8.602h2.22l3.036 8.602h-1.957zm-1.055-3.563c-.574-1.848-.897-2.893-.97-3.135s-.124-.434-.155-.574c-.13.5-.498 1.736-1.107 3.71h2.232zM32.757 8.377c-.684 0-1.213.257-1.588.77s-.563 1.23-.563 2.148c0 1.91.717 2.865 2.15 2.865.602 0 1.33-.15 2.186-.45v1.522c-.703.293-1.488.44-2.355.44-1.246 0-2.2-.38-2.86-1.135s-.99-1.84-.99-3.255c0-.89.163-1.67.487-2.34s.79-1.185 1.397-1.542 1.32-.536 2.136-.536c.832 0 1.668.2 2.508.604l-.586 1.477c-.32-.152-.643-.285-.967-.398s-.644-.17-.956-.17zM43.655 15.555h-2.062l-2.244-3.61-.77.552v3.06h-1.815v-8.57h1.816v3.92l.716-1.007 2.32-2.912h2.016l-2.988 3.79 3.01 4.777zM49.667 15.555h-4.934V6.988h4.934v1.488H46.55v1.88h2.9v1.49h-2.9v2.208h3.117v1.5zM58.56 11.19c0 1.41-.4 2.49-1.203 3.24s-1.962 1.124-3.478 1.124h-2.427V6.988h2.69c1.397 0 2.483.37 3.257 1.107s1.16 1.77 1.16 3.094zm-1.885.046c0-1.84-.812-2.76-2.438-2.76h-.967v5.578h.78c1.75 0 2.625-.94 2.625-2.818zM71.798 15.555H69.73l-1.16-4.5c-.043-.16-.116-.49-.22-.993s-.163-.84-.18-1.01c-.022.21-.08.55-.175 1.016s-.166.8-.217 1l-1.154 4.487h-2.062L62.376 6.99h1.787l1.096 4.675c.19.863.33 1.61.415 2.244.023-.224.077-.568.16-1.035s.164-.83.238-1.087l1.248-4.8h1.718l1.248 4.8c.055.215.123.543.205.984s.146.82.19 1.137c.038-.306.1-.686.187-1.14s.164-.824.234-1.105l1.09-4.676h1.788l-2.18 8.565zM75.055 15.555V6.988h1.816v8.566h-1.815zM82.333 15.555h-1.816V8.5H78.19V6.988h6.47V8.5h-2.327v7.055zM92.997 15.555h-1.81v-3.697h-3.394v3.697h-1.816V6.988h1.816v3.357h3.393V6.988h1.81v8.567z"/><g fill="#FFF"><path d="M9.272 14.444H7.456V7.39H5.13V5.878h6.47V7.39H9.27v7.054zM14.733 11.157v3.287h-1.816V5.878h2.496c1.164 0 2.025.212 2.584.636s.838 1.067.838 1.93c0 .505-.14.953-.416 1.346s-.67.7-1.18.923c1.29 1.926 2.13 3.17 2.52 3.732h-2.015L15.7 11.157h-.967zm0-1.476h.586c.573 0 .997-.095 1.27-.286s.41-.492.41-.902c0-.406-.14-.695-.42-.867s-.71-.258-1.297-.258h-.55V9.68zM26.083 14.444l-.62-2.04h-3.124l-.622 2.04H19.76l3.023-8.602h2.22l3.036 8.602h-1.957zm-1.055-3.562c-.574-1.848-.897-2.893-.97-3.135s-.124-.434-.155-.574c-.13.5-.498 1.736-1.107 3.71h2.232zM32.757 7.267c-.684 0-1.213.257-1.588.77s-.563 1.23-.563 2.148c0 1.91.717 2.865 2.15 2.865.602 0 1.33-.15 2.186-.45v1.522c-.703.293-1.488.44-2.355.44-1.246 0-2.2-.38-2.86-1.135s-.99-1.84-.99-3.255c0-.89.163-1.67.487-2.34s.79-1.185 1.397-1.542 1.32-.536 2.136-.536c.832 0 1.668.2 2.508.604l-.586 1.477c-.32-.152-.643-.285-.967-.398s-.644-.17-.956-.17zM43.655 14.444h-2.062l-2.244-3.61-.77.552v3.06h-1.815V5.877h1.816v3.92l.716-1.008 2.32-2.912h2.016l-2.988 3.79 3.01 4.776zM49.667 14.444h-4.934V5.878h4.934v1.488H46.55v1.88h2.9v1.49h-2.9v2.208h3.117v1.5zM58.56 10.08c0 1.41-.4 2.49-1.203 3.24s-1.962 1.124-3.478 1.124h-2.427V5.878h2.69c1.397 0 2.483.37 3.257 1.107s1.16 1.77 1.16 3.094zm-1.885.046c0-1.84-.812-2.76-2.438-2.76h-.967v5.578h.78c1.75 0 2.625-.94 2.625-2.818zM71.798 14.444H69.73l-1.16-4.5c-.043-.16-.116-.49-.22-.993s-.163-.838-.18-1.01c-.022.21-.08.55-.175 1.017s-.166.8-.217 1l-1.154 4.487h-2.062l-2.186-8.566h1.787l1.096 4.676c.19.863.33 1.61.415 2.244.023-.223.077-.567.16-1.034s.164-.83.238-1.087l1.248-4.8h1.718l1.248 4.8c.055.215.123.543.205.984s.146.82.19 1.138c.038-.305.1-.685.187-1.14s.164-.823.234-1.104l1.09-4.676h1.788l-2.18 8.566zM75.055 14.444V5.878h1.816v8.566h-1.815zM82.333 14.444h-1.816V7.39H78.19V5.878h6.47V7.39h-2.327v7.054zM92.997 14.444h-1.81v-3.697h-3.394v3.697h-1.816V5.878h1.816v3.357h3.393V5.878h1.81v8.566z"/></g></g></svg>