<?xml version="1.0" encoding="utf-8"?>
<!-- Generator: Adobe Illustrator 16.0.0, SVG Export Plug-In . SVG Version: 6.00 Build 0)  -->
<!DOCTYPE svg PUBLIC "-//W3C//DTD SVG 1.1//EN" "http://www.w3.org/Graphics/SVG/1.1/DTD/svg11.dtd">
<svg version="1.1" id="Layer_1" xmlns="http://www.w3.org/2000/svg" xmlns:xlink="http://www.w3.org/1999/xlink" x="0px" y="0px"
	 width="162.611px" height="20px" viewBox="0 0 162.611 20" style="enable-background:new 0 0 162.611 20;" xml:space="preserve">
<linearGradient id="Right_Background_1_" gradientUnits="userSpaceOnUse" x1="157.3074" y1="-64.4448" x2="157.3074" y2="-45.5562" gradientTransform="matrix(1 0 0 -1 -76 -45)">
	<stop  offset="0" style="stop-color:#999999"/>
	<stop  offset="1" style="stop-color:#CCCCCC"/>
</linearGradient>
<path id="Right_Background" style="fill:url(#Right_Background_1_);" d="M2.223,19.445c-0.92,0-1.667-0.75-1.667-1.668V2.223
	c0-0.92,0.747-1.667,1.667-1.667h158.165c0.919,0,1.668,0.747,1.668,1.667v15.554c0,0.92-0.749,1.668-1.668,1.668H2.223
	L2.223,19.445z"/>
<linearGradient id="Left_Background_1_" gradientUnits="userSpaceOnUse" x1="192.4441" y1="611" x2="192.4441" y2="591" gradientTransform="matrix(1 0 0 1 -152 -591)">
	<stop  offset="0" style="stop-color:#333333"/>
	<stop  offset="1" style="stop-color:#666666"/>
</linearGradient>
<path id="Left_Background" style="fill:url(#Left_Background_1_);" d="M80.889,20H2c-1.1,0-2-0.9-2-2V2c0-1.1,0.9-2,2-2H80.89
	L80.889,20L80.889,20z"/>
<path id="Right_Outline" style="fill:#666666;" d="M160.388,1.111c0.612,0,1.109,0.499,1.109,1.111v15.555
	c0,0.613-0.497,1.111-1.109,1.111H2.223c-0.612,0-1.111-0.498-1.111-1.111V2.223c0-0.612,0.499-1.111,1.111-1.111L160.388,1.111
	 M160.388,0H2.223C1,0,0,1,0,2.223v15.554C0,19,1,20,2.223,20h158.165c1.223,0,2.223-1,2.223-2.223V2.223
	C162.61,1,161.61,0,160.388,0L160.388,0z"/>
<path id="Left_Outline" style="fill:#333333;" d="M2.223,0C1,0,0,1,0,2.223v15.554C0,19,1,20,2.223,20h78.665V0H2.223z
	 M79.777,18.889H2.223c-0.612,0-1.111-0.498-1.111-1.111V2.223c0-0.612,0.499-1.111,1.111-1.111l77.554,0V18.889z"/>
<text transform="matrix(1 0 0 1 5.8889 15.5547)" style="opacity:0.5;enable-background:new    ; font-family:'OpenSans-Bold'; font-size:12;">BUILT WITH</text>
<text transform="matrix(1 0 0 1 5.8889 14.4443)" style="fill:#FFFFFF; font-family:'OpenSans-Bold'; font-size:12;">BUILT WITH</text>
<text transform="matrix(1 0 0 1 87.8875 15.5547)" style="opacity:0.5;fill:#F2F2F2;enable-background:new    ; font-family:'OpenSans-Extrabold'; font-size:12;">BITBADGES</text>
<text transform="matrix(1 0 0 1 87.8875 14.4443)" style="fill:#333333; font-family:'OpenSans-Extrabold'; font-size:12;">BITBADGES</text>
</svg>
