<?xml version="1.0" encoding="utf-8"?>
<!-- Generator: Adobe Illustrator 16.0.0, SVG Export Plug-In . SVG Version: 6.00 Build 0)  -->
<!DOCTYPE svg PUBLIC "-//W3C//DTD SVG 1.1//EN" "http://www.w3.org/Graphics/SVG/1.1/DTD/svg11.dtd">
<svg version="1.1" id="Layer_1" xmlns="http://www.w3.org/2000/svg" xmlns:xlink="http://www.w3.org/1999/xlink" x="0px" y="0px"
	 width="162.611px" height="20px" viewBox="0 0 162.611 20" style="enable-background:new 0 0 162.611 20;" xml:space="preserve">
<g id="Background">
	<linearGradient id="SVGID_1_" gradientUnits="userSpaceOnUse" x1="81.3069" y1="19.4453" x2="81.3069" y2="0.5566">
		<stop  offset="0" style="stop-color:#999999"/>
		<stop  offset="1" style="stop-color:#CCCCCC"/>
	</linearGradient>
	<path style="fill:url(#SVGID_1_);" d="M2.223,19.445c-0.92,0-1.667-0.75-1.667-1.668V2.223c0-0.92,0.747-1.667,1.667-1.667h158.165
		c0.919,0,1.668,0.747,1.668,1.667v15.554c0,0.92-0.749,1.668-1.668,1.668H2.223L2.223,19.445z"/>
	
		<linearGradient id="SVGID_2_" gradientUnits="userSpaceOnUse" x1="116.4451" y1="-64.9995" x2="116.4451" y2="-45" gradientTransform="matrix(1 0 0 -1 -76 -45)">
		<stop  offset="0" style="stop-color:#333333"/>
		<stop  offset="1" style="stop-color:#666666"/>
	</linearGradient>
	<path style="fill:url(#SVGID_2_);" d="M80.889,20H2c-1.1,0-2-0.9-2-2V2c0-1.1,0.9-2,2-2h78.89V20z"/>
	<rect x="79.777" style="fill:#333333;" width="1.111" height="20"/>
	<path style="fill:#333333;" d="M160.388,1.111c0.613,0,1.11,0.499,1.11,1.111v15.555c0,0.613-0.497,1.111-1.11,1.111H2.223
		c-0.612,0-1.111-0.498-1.111-1.111V2.223c0-0.612,0.499-1.111,1.111-1.111L160.388,1.111 M160.388,0H2.223C1,0,0,1,0,2.223v15.554
		C0,19,1,20,2.223,20h158.165c1.223,0,2.223-1,2.223-2.223V2.223C162.61,1,161.61,0,160.388,0L160.388,0z"/>
</g>
<g id="Built_with">
	<g style="opacity:0.5;">
		<text transform="matrix(1 0 0 1 5.8894 15.5547)" style="font-family:'OpenSans-Bold'; font-size:12;">BUILT WITH</text>
	</g>
	<g>
		<text transform="matrix(1 0 0 1 5.8894 14.4443)" style="fill:#FFFFFF; font-family:'OpenSans-Bold'; font-size:12;">BUILT WITH</text>
	</g>
</g>
<g id="BitBdages">
	<g style="opacity:0.5;">
		<text transform="matrix(1 0 0 1 87.8884 15.5547)" style="fill:#F2F2F2; font-family:'OpenSans-Extrabold'; font-size:12;">BITBADGES</text>
	</g>
	<g>
		<text transform="matrix(1 0 0 1 87.8884 14.4443)" style="fill:#333333; font-family:'OpenSans-Extrabold'; font-size:12;">BITBADGES</text>
	</g>
</g>
</svg>
